<?xml version="1.0" encoding="utf-8"?>
<!-- Generator: Adobe Illustrator 22.1.0, SVG Export Plug-In . SVG Version: 6.00 Build 0)  -->
<svg version="1.1" id="Capa_1" xmlns="http://www.w3.org/2000/svg" xmlns:xlink="http://www.w3.org/1999/xlink" x="0px" y="0px"
	 viewBox="0 0 512 512" style="enable-background:new 0 0 512 512;" xml:space="preserve">
<style type="text/css">
	.st0{fill:#DE884F;stroke:#853D2E;stroke-width:26.1611;}
	.st1{fill:#853D2E;}
</style>
<circle class="st0" cx="256" cy="256" r="236"/>
<g>
	<g>
		<g>
			<path class="st1" d="M195,287.5c13.9-0.2,27.7-3.7,39.9-10.2c0,0,0.1,0,0.2,0c6.3,3,18.3,7.7,28.8,6.3c2.6-0.3,4.8-2.1,5.8-4.5
				c1-2.4,0.5-5.2-1.1-7.2c-2.4-2.9-5.8-7.7-8.9-14c0,0,0-0.1,0.1-0.2c14-15.9,21.8-36.3,21.9-57.6c0.1-20.3-6.9-40.1-19.7-55.8
				c-1.6-1.9-4.4-2.2-6.3-0.6c-1.9,1.6-2.2,4.4-0.6,6.3c11.5,14.1,17.8,31.9,17.7,50.1c-0.1,19.1-7.1,37.4-19.7,51.7
				c-2.4,2.8-3,6.7-1.4,9.9c2.7,5.5,5.6,10,8,13.2c-8-0.1-17-3.9-20.8-5.7c-2.6-1.2-5.6-1.1-8.1,0.2c-11.1,5.9-23.2,9-35.8,9.1
				c-20.8,0.3-40.6-7.8-55.9-22.6c-15.2-14.8-23.8-34.5-24.1-55.3c-0.3-21.3,7.8-41.3,22.7-56.5c14.9-15.1,34.9-23.5,56.2-23.5
				c17.1,0,33.3,5.4,47,15.6c2,1.5,4.8,1.1,6.2-0.9c1.5-2,1.1-4.8-0.9-6.2c-15.2-11.3-33.3-17.3-52.3-17.3
				c-23.7,0-45.9,9.3-62.5,26.1c-16.6,16.8-25.6,39.2-25.3,62.8c0.3,23.2,9.8,45,26.7,61.5c16.7,16.2,38.3,25.1,61.1,25.1
				C194.2,287.5,194.6,287.5,195,287.5z"/>
			<path class="st1" d="M221.2,199.6c0,8.7,7.1,15.7,15.7,15.7s15.7-7.1,15.7-15.7c0-8.7-7.1-15.7-15.7-15.7S221.2,191,221.2,199.6z
				 M243.8,199.6c0,3.8-3.1,6.8-6.8,6.8s-6.8-3.1-6.8-6.8c0-3.8,3.1-6.8,6.8-6.8S243.8,195.9,243.8,199.6z"/>
			<path class="st1" d="M178.1,199.6c0,8.7,7.1,15.7,15.7,15.7s15.7-7.1,15.7-15.7c0-8.7-7.1-15.7-15.7-15.7S178.1,191,178.1,199.6z
				 M200.6,199.6c0,3.8-3.1,6.8-6.8,6.8c-3.8,0-6.8-3.1-6.8-6.8c0-3.8,3.1-6.8,6.8-6.8C197.6,192.8,200.6,195.9,200.6,199.6z"/>
			<path class="st1" d="M134.9,199.6c0,8.7,7.1,15.7,15.7,15.7s15.7-7.1,15.7-15.7c0-8.7-7.1-15.7-15.7-15.7
				C142,183.9,134.9,191,134.9,199.6z M157.5,199.6c0,3.8-3.1,6.8-6.8,6.8s-6.8-3.1-6.8-6.8c0-3.8,3.1-6.8,6.8-6.8
				S157.5,195.9,157.5,199.6z"/>
			<path class="st1" d="M402,211.6c-2.4-0.3-4.6,1.5-4.9,4c-1,9.5-3.2,19.8-6.4,30.7c-12.8,42.6-32.7,78.5-59.2,106.6
				c-7.4,7.9-15.6,15.4-24,22.1c-2.9,2.3-5.9,4.6-9,6.8c-6.3,4.5-12.8,8.7-19.5,12.6c-17.2,10-36.5,14.3-51.6,11.6
				c-2.5-0.4-4.8-1-7.1-1.7c9.9-7.4,18.7-15,28.3-23.6c10.9-9.9,20.5-19,29.3-28c0,0,0,0,0,0c0,0,0,0,0,0l5.2-5.5
				c32.3-31,56.4-68.2,71.5-110.7c0,0,2.8-8,2.8-8c8.1-23.4,15.5-48.1,22.1-73.8c5.5,5.7,9.9,12.5,13.1,20.2
				c2.1,5,3.6,10.5,4.4,16.4c0.3,2.4,2.6,4.1,5,3.8c2.4-0.3,4.1-2.6,3.8-5c-0.9-6.7-2.6-13-5-18.7c-0.6-1.4-1.2-2.8-1.9-4.2
				c-6-12.3-14.9-21.4-25.8-29.4c-10.7-7.9-24.9-14-37.9-8.2c-4.3,1.9-7.9,4.9-10.8,8.9c-1.8,2.5-3.3,5.3-4.5,8.5
				c-0.3,0.7-9,28.5-12.3,42.2c-2.6,10.7-0.4,18.5,6.7,24.6c2.1,1.8,4.5,3.3,7.5,4.9c6.3,3.2,12.9,5.9,19.4,8.5l2.7,1.1
				c0,0,3.6,1.4,3.6,1.4l-1.3,3.8c-14.7,41.1-38,77.2-69.4,107.3c-0.1,0.1-0.1,0.1-0.2,0.2l-2.2,2.3c0,0-4.7-4.6-4.7-4.6
				c-0.4-0.4-9.7-10.4-14.7-14.3c-11.9-9.4-22-9.6-33.7-0.7c-10.2,7.7-23.3,18-34.9,29.6c-13.2,13.2-13,27.1,0.5,41.2
				c4.7,4.9,10,9,15.9,12.3c0,0,0,0,0,0c2,1.1,4,2.1,6.1,3c0.1,0,0.2,0.1,0.3,0.1c5.1,2.2,10.6,3.8,16.5,4.9c3.6,0.6,7.3,1,11.2,1
				c14.8,0,31.2-4.7,46.5-13.6c7-4.1,13.8-8.5,20.4-13.2c3.3-2.4,6.6-4.8,9.7-7.4c21.5-17.2,40.1-38.7,54.6-62.1
				c3-4.9,5.9-9.9,8.6-15c9.4-17.7,16.8-36.4,22.5-55.5c3.4-11.4,5.7-22.3,6.8-32.3C406.2,214,404.5,211.8,402,211.6L402,211.6z
				 M347.2,219.9c-5.8-2.3-11.4-4.6-17-7.2c-3.5-1.6-7.2-3.3-10.1-5.8c-4.5-3.8-5.6-8.4-3.8-15.7c3.1-12.9,11.5-39.7,12-41.2
				c0.9-2.4,2-4.5,3.3-6.2c2-2.7,4.4-4.7,7.2-6c11.5-5,24.3,3.3,33.1,10c0,0,0.1,0.1,0.1,0.1c-6.4,25.4-13.7,50-21.5,73.3
				C349.4,220.7,348.3,220.3,347.2,219.9L347.2,219.9z M206.9,398.7C206.9,398.7,206.9,398.7,206.9,398.7c-5-2.8-9.4-6.2-13.5-10.5
				c-10.2-10.7-10.4-19-0.7-28.8c11.1-11.2,23.4-20.8,33.9-28.8c8.4-6.3,14.1-6.2,22.8,0.6c4.5,3.5,18.7,18.4,18.7,18.4
				c-7.8,7.8-16.2,15.8-25.7,24.4c-10.9,9.8-20.6,18.2-32.3,26.5C209.1,399.9,208,399.3,206.9,398.7z"/>
		</g>
	</g>
</g>
</svg>
