<?xml version="1.0" encoding="utf-8"?>
<!-- Generator: Adobe Illustrator 22.1.0, SVG Export Plug-In . SVG Version: 6.00 Build 0)  -->
<svg version="1.1" id="Capa_1" xmlns="http://www.w3.org/2000/svg" xmlns:xlink="http://www.w3.org/1999/xlink" x="0px" y="0px"
	 viewBox="0 0 512 512" style="enable-background:new 0 0 512 512;" xml:space="preserve">
<style type="text/css">
	.st0{fill:#DE884F;stroke:#853D2E;stroke-width:26.1611;}
	.st1{fill:#853D2E;}
</style>
<circle class="st0" cx="256" cy="256" r="236"/>
<g>
	<path class="st1" d="M198.9,200.4c0.3,14.9,6.3,28.9,16.9,39.4c10.6,10.6,24.7,16.5,39.5,16.6c6.9,0.1,13.7-1.1,20.2-3.4
		c2.3-0.8,3.5-3.4,2.6-5.6c-0.8-2.3-3.4-3.5-5.6-2.6c-5.5,2-11.2,3-17.1,2.9c-25.9-0.3-47.3-21.5-47.8-47.4
		c-0.4-13.2,5-26.1,14.7-35.5c9.7-9.4,22.8-14.4,35.9-13.7c25.2,1.1,45.4,21.8,46.1,47c0.1,5.9-0.7,11.6-2.7,17.1
		c-1.3,3.6-4.7,6.1-8.7,6.1c0,0,0,0,0,0c-5.1,0-9.2-4.1-9.2-9.2v-36.2c0-2.4-2-4.4-4.4-4.4s-4.4,2-4.4,4.4v3.2
		c-5-4.7-11.7-7.6-19-7.6c-15.3,0-27.8,12.5-27.8,27.8s12.5,27.8,27.8,27.8c7.9,0,15.1-3.4,20.2-8.7c2.6,6.8,9.1,11.6,16.8,11.6h0
		c7.6,0,14.5-4.8,17-12c2.3-6.5,3.3-13.3,3.1-20.2c-0.8-29.8-24.7-54.2-54.4-55.6c-15.6-0.8-31.1,5-42.5,16.2
		C204.8,169.5,198.5,184.8,198.9,200.4L198.9,200.4z M256,218.4c-10.5,0-19-8.5-19-19c0-10.5,8.5-19,19-19s19,8.5,19,19
		C275,209.8,266.5,218.4,256,218.4z"/>
	<path class="st1" d="M404.3,213.9l-123.2-96.3c-14.3-11.1-34.2-11.2-48.5-0.1l-124.9,96.4c-1.1,0.8-1.7,2.1-1.7,3.5V256
		c0,2.4,2,4.4,4.4,4.4s4.4-2,4.4-4.4v-31.2l110.5,61.7l-110.5,85.3v-95.3c0-2.4-2-4.4-4.4-4.4s-4.4,2-4.4,4.4v104.3
		c0,2.4,2,4.4,4.4,4.4h291.2c2.3,0,4.4-2,4.4-4.4v-163C406.1,216.4,405.5,214.8,404.3,213.9L404.3,213.9z M123.3,376.4l114.7-88.5
		c11.1-8.6,26.7-8.6,37.7,0.1l2.1,1.7c0,0,55.1,43,55.1,43c1.9,1.5,4.7,1.2,6.2-0.8c1.5-1.9,1.2-4.7-0.8-6.2l-49.9-39l27-15.2
		c2.1-1.2,2.9-3.9,1.7-6c-1.2-2.1-3.9-2.9-6-1.7l-30.2,17c-14.1-10.9-33.8-11-48-0.2l-114.5-64l119.6-92.3
		c11.1-8.6,26.7-8.6,37.7,0.1l118.4,92.6l-65.7,37c-2.1,1.2-2.9,3.9-1.7,6c1.2,2.1,3.9,2.9,6,1.7l64.5-36.3v146.4L354,338
		c-1.9-1.5-4.7-1.2-6.2,0.8c-1.5,1.9-1.2,4.7,0.8,6.2l40.2,31.4L123.3,376.4L123.3,376.4z"/>
</g>
</svg>
