<?xml version="1.0" encoding="utf-8"?>
<!-- Generator: Adobe Illustrator 22.1.0, SVG Export Plug-In . SVG Version: 6.00 Build 0)  -->
<svg version="1.1" id="Layer_1" xmlns="http://www.w3.org/2000/svg" xmlns:xlink="http://www.w3.org/1999/xlink" x="0px" y="0px"
	 viewBox="0 0 60 60" style="enable-background:new 0 0 60 60;" xml:space="preserve">
<style type="text/css">
	.st0{fill:#448196;stroke:#7EC8E3;stroke-width:1.7637;stroke-miterlimit:10;}
	.st1{fill:#853D2E;stroke:#FFD98E;stroke-width:1.7637;stroke-miterlimit:10;}
	.st2{fill:#853D2E;stroke:#DE884F;stroke-width:1.7637;stroke-miterlimit:10;}
	.st3{fill:#DE884F;}
	.st4{fill:#853D2E;}
	.st5{fill:none;stroke:#853D2E;stroke-width:3.2969;}
	.st6{fill:#DE884F;stroke:#853D2E;stroke-width:3.2969;}
	.st7{fill:#FFFFFF;stroke:#231F20;}
	.st8{fill:#FFD98E;}
	.st9{fill:#7EC8E3;}
	.st10{fill:#DE884F;stroke:#853D2E;stroke-width:1.7637;stroke-miterlimit:10;}
</style>
<path class="st0" d="M48.8,58.7H11.2c-5.5,0-9.9-4.5-9.9-9.9V11.2c0-5.5,4.5-9.9,9.9-9.9h37.5c5.5,0,9.9,4.5,9.9,9.9v37.5
	C58.7,54.3,54.3,58.7,48.8,58.7z"/>
<g>
	<path class="st9" d="M26.9,19.8c1.4,0.6,2.5,1.5,3.4,2.6c0.8,1.1,1.2,2.4,1.2,3.9c0,1.4-0.4,2.6-1.1,3.6c-0.7,1.1-1.7,1.9-3,2.5
		c-1.3,0.6-2.7,0.9-4.3,0.9c-0.8,0-1.5-0.1-2.3-0.2c-0.7-0.1-1.3-0.3-1.8-0.5l-0.1,7.1c0,0.5-0.2,1-0.5,1.3
		c-0.4,0.3-0.9,0.5-1.5,0.5c-0.6,0-1.1-0.2-1.5-0.5c-0.4-0.3-0.5-0.8-0.5-1.3s0-1.6,0.1-3c0-1.9,0.1-3.6,0.1-5.1
		c0-2.7-0.1-5.1-0.2-7.2l-0.1,0.1c-0.2,0.1-0.4,0.2-0.5,0.2c-0.3,0-0.6-0.2-0.8-0.5c-0.2-0.4-0.3-0.8-0.3-1.3c0-0.4,0.1-0.7,0.3-0.9
		c0.2-0.2,0.6-0.5,1-0.8l0.4-0.2v-0.4c0-0.6,0.2-1.1,0.5-1.4c0.3-0.3,0.8-0.5,1.6-0.5s1.2,0.1,1.5,0.2c0.3,0.1,0.4,0.3,0.4,0.5v0
		c1.2-0.3,2.4-0.5,3.5-0.5C23.9,18.8,25.5,19.1,26.9,19.8z M25.7,29c0.9-0.7,1.3-1.7,1.3-2.8c0-1.2-0.5-2.1-1.4-2.8
		c-0.9-0.7-2.1-1.1-3.5-1.1c-0.9,0-2,0.2-3.4,0.6c0,1.1,0.1,1.7,0.1,2c0,0.8,0,1.9,0.1,3.2c0,0.6,0.1,1.1,0.1,1.4
		c0.4,0.2,1,0.4,1.6,0.5c0.6,0.1,1.2,0.2,1.8,0.2C23.7,30.1,24.9,29.7,25.7,29z"/>
	<path class="st9" d="M36.8,40.4c-1.1-0.7-1.9-1.6-2.4-2.8c-0.1-0.4-0.2-0.6-0.2-0.8c0-0.4,0.3-0.7,0.6-1.1c0.4-0.3,0.8-0.5,1.2-0.5
		c0.3,0,0.5,0.1,0.7,0.2c0.2,0.1,0.4,0.3,0.6,0.6c0.6,0.8,1.1,1.3,1.6,1.7c0.5,0.4,1.1,0.5,1.8,0.5c0.7,0,1.2-0.1,1.7-0.4
		c0.5-0.3,0.7-0.7,0.7-1.2c0-0.5-0.3-0.9-0.8-1.2c-0.5-0.3-1.3-0.6-2.4-1c-1.1-0.4-2-0.7-2.7-1.1c-0.7-0.3-1.3-0.8-1.8-1.5
		c-0.5-0.7-0.8-1.5-0.8-2.5c0-1,0.3-1.8,0.8-2.6c0.6-0.7,1.3-1.3,2.3-1.7c0.9-0.4,2-0.6,3.1-0.6c1.2,0,2.2,0.2,3.1,0.7
		c0.9,0.4,1.6,1,2,1.8c0.5,0.7,0.7,1.5,0.7,2.4c0,0.5-0.1,0.9-0.4,1.2c-0.3,0.3-0.7,0.4-1.3,0.4c-0.6,0-1-0.1-1.2-0.3
		c-0.2-0.2-0.3-0.5-0.4-0.8c-0.1-1.4-1-2.1-2.5-2.1c-0.8,0-1.3,0.2-1.7,0.5c-0.4,0.3-0.6,0.7-0.6,1.2c0,0.5,0.3,0.9,0.8,1.2
		c0.5,0.3,1.3,0.6,2.5,1c1.1,0.3,2,0.7,2.7,1c0.7,0.3,1.3,0.8,1.8,1.5s0.8,1.5,0.8,2.5c0,1.1-0.3,2.1-0.9,2.8
		c-0.6,0.7-1.4,1.3-2.4,1.6c-1,0.4-2,0.5-3,0.5C39.2,41.5,37.9,41.1,36.8,40.4z"/>
</g>
</svg>
