<?xml version="1.0" encoding="utf-8"?>
<!-- Generator: Adobe Illustrator 22.1.0, SVG Export Plug-In . SVG Version: 6.00 Build 0)  -->
<svg version="1.1" id="Layer_1" xmlns="http://www.w3.org/2000/svg" xmlns:xlink="http://www.w3.org/1999/xlink" x="0px" y="0px"
	 viewBox="0 0 60 60" style="enable-background:new 0 0 60 60;" xml:space="preserve">
<style type="text/css">
	.st0{fill:#DE884F;}
	.st1{fill:#853D2E;}
	.st2{fill:none;stroke:#853D2E;stroke-width:3.2969;}
	.st3{fill:#DE884F;stroke:#853D2E;stroke-width:3.2969;}
</style>
<g>
	<circle class="st3" cx="30" cy="30" r="25"/>
	<g>
		<g>
			<path class="st1" d="M37.8,20.5c-0.9,0-1.7,0.8-1.7,1.7c0,0.9,0.8,1.7,1.7,1.7c0.9,0,1.7-0.8,1.7-1.7
				C39.5,21.3,38.7,20.5,37.8,20.5z"/>
			<path class="st1" d="M30.1,22.7c-4,0-7.2,3.2-7.2,7.2c0,4,3.2,7.2,7.2,7.2c4,0,7.2-3.2,7.2-7.2C37.3,26,34.1,22.7,30.1,22.7z
				 M30.1,34.6c-2.5,0-4.6-2.1-4.6-4.6s2.1-4.6,4.6-4.6c2.5,0,4.6,2.1,4.6,4.6S32.7,34.6,30.1,34.6z"/>
			<path class="st1" d="M35.9,44.6H24.1c-4.9,0-8.8-3.9-8.8-8.8V24.1c0-4.9,3.9-8.8,8.8-8.8h11.7c4.9,0,8.8,3.9,8.8,8.8v11.7
				C44.7,40.7,40.7,44.6,35.9,44.6z M24.1,18.1c-3.3,0-6,2.7-6,6v11.7c0,3.3,2.7,6,6,6h11.7c3.3,0,6-2.7,6-6V24.1c0-3.3-2.7-6-6-6
				H24.1z"/>
		</g>
	</g>
</g>
</svg>
