<?xml version="1.0" encoding="utf-8"?>
<!-- Generator: Adobe Illustrator 22.1.0, SVG Export Plug-In . SVG Version: 6.00 Build 0)  -->
<svg version="1.1" id="Layer_1" xmlns="http://www.w3.org/2000/svg" xmlns:xlink="http://www.w3.org/1999/xlink" x="0px" y="0px"
	 viewBox="0 0 60 60" style="enable-background:new 0 0 60 60;" xml:space="preserve">
<style type="text/css">
	.st0{fill:#DE884F;}
	.st1{fill:#853D2E;}
	.st2{fill:none;stroke:#853D2E;stroke-width:3.2969;}
	.st3{fill:#DE884F;stroke:#853D2E;stroke-width:3.2969;}
</style>
<g>
	<circle class="st3" cx="30" cy="30" r="25"/>
	<path class="st1" d="M43,27.1c-0.3,0-0.5,0-0.8,0c-2.8,0-5.4-1.4-7-3.8v12.9c0,5.3-4.3,9.5-9.5,9.5c-5.3,0-9.5-4.3-9.5-9.5
		c0-5.3,4.3-9.5,9.5-9.5l0,0c0.2,0,0.4,0,0.6,0v4.7c-0.2,0-0.4-0.1-0.6-0.1c-2.7,0-4.9,2.2-4.9,4.9s2.2,4.9,4.9,4.9
		c2.7,0,5-2.1,5-4.8l0-21.8h4.5c0.4,4,3.7,7.2,7.7,7.5L43,27.1"/>
</g>
</svg>
