<?xml version="1.0" encoding="utf-8"?>
<!-- Generator: Adobe Illustrator 22.1.0, SVG Export Plug-In . SVG Version: 6.00 Build 0)  -->
<svg version="1.1" id="Layer_1" xmlns="http://www.w3.org/2000/svg" xmlns:xlink="http://www.w3.org/1999/xlink" x="0px" y="0px"
	 viewBox="0 0 60 60" style="enable-background:new 0 0 60 60;" xml:space="preserve">
<style type="text/css">
	.st0{fill:#DE884F;}
	.st1{fill:#853D2E;}
	.st2{fill:none;stroke:#853D2E;stroke-width:3.2969;}
	.st3{fill:#DE884F;stroke:#853D2E;stroke-width:3.2969;}
</style>
<g>
	<circle class="st3" cx="30" cy="30" r="25"/>
	<path class="st1" d="M43.8,21.4c-0.9,0.4-1.8,0.6-2.8,0.8c0.4-0.1,1.1-0.9,1.4-1.2c0.4-0.5,0.7-1.1,0.9-1.7c0,0,0-0.1,0-0.1
		c-0.1,0-0.1,0-0.1,0c-1,0.6-2.1,1-3.3,1.3c-0.1,0-0.2,0-0.2-0.1c-0.1-0.1-0.2-0.2-0.3-0.3c-0.5-0.4-1-0.7-1.6-1
		c-0.8-0.3-1.6-0.4-2.4-0.4c-0.8,0.1-1.6,0.3-2.3,0.7c-0.7,0.4-1.4,0.9-1.9,1.5c-0.5,0.6-0.9,1.4-1.1,2.2c-0.2,0.8-0.2,1.6-0.1,2.3
		c0,0.1,0,0.1-0.1,0.1c-4.5-0.7-8.2-2.3-11.2-5.7c-0.1-0.1-0.2-0.1-0.3,0c-1.3,2-0.7,5.2,1,6.7c0.2,0.2,0.4,0.4,0.7,0.6
		c-0.1,0-1.2-0.1-2.2-0.6c-0.1-0.1-0.2,0-0.2,0.1c0,0.2,0,0.4,0,0.6c0.3,2,1.6,3.9,3.6,4.6c0.2,0.1,0.5,0.2,0.7,0.2
		c-0.4,0.1-0.9,0.2-2.1,0.1c-0.2,0-0.2,0-0.2,0.2c0.9,2.5,3,3.3,4.5,3.7c0.2,0,0.4,0,0.6,0.1c0,0,0,0,0,0c-0.5,0.8-2.2,1.3-3.1,1.6
		c-1.5,0.5-3.1,0.7-4.6,0.6c-0.2,0-0.3,0-0.4,0c-0.1,0,0,0.1,0.1,0.2c0.3,0.2,0.6,0.4,1,0.6c1,0.5,2,0.9,3.1,1.2
		c5.6,1.5,11.8,0.4,16-3.7c3.3-3.3,4.4-7.8,4.4-12.3c0-0.2,0.2-0.3,0.3-0.4c0.9-0.6,1.5-1.4,2.2-2.3c0.1-0.2,0.1-0.4,0.1-0.4
		c0,0,0,0,0,0C43.9,21.4,43.9,21.4,43.8,21.4z"/>
</g>
</svg>
