<?xml version="1.0" encoding="utf-8"?>
<!-- Generator: Adobe Illustrator 22.1.0, SVG Export Plug-In . SVG Version: 6.00 Build 0)  -->
<svg version="1.1" id="Layer_1" xmlns="http://www.w3.org/2000/svg" xmlns:xlink="http://www.w3.org/1999/xlink" x="0px" y="0px"
	 viewBox="0 0 60 60" style="enable-background:new 0 0 60 60;" xml:space="preserve">
<style type="text/css">
	.st0{fill:#DE884F;}
	.st1{fill:#853D2E;}
	.st2{fill:none;stroke:#853D2E;stroke-width:3.2969;}
	.st3{fill:#DE884F;stroke:#853D2E;stroke-width:3.2969;}
</style>
<g>
	<g>
		<path class="st0" d="M55,30C55,16.2,43.8,5,30,5C16.2,5,5,16.2,5,30c0,12.5,9.1,22.8,21.1,24.7V37.2h-6.3V30h6.3v-5.5
			c0-6.3,3.7-9.7,9.4-9.7c2.7,0,5.6,0.5,5.6,0.5v6.2H38c-3.1,0-4.1,1.9-4.1,3.9V30h6.9l-1.1,7.2h-5.8v17.5C45.9,52.8,55,42.5,55,30z
			"/>
		<path class="st1" d="M39.7,37.2l1.1-7.2h-6.9v-4.7c0-2,1-3.9,4.1-3.9h3.2v-6.2c0,0-2.9-0.5-5.6-0.5c-5.7,0-9.4,3.5-9.4,9.7V30
			h-6.3v7.2h6.3v17.5c1.3,0.2,2.6,0.3,3.9,0.3c1.3,0,2.6-0.1,3.9-0.3V37.2H39.7z"/>
	</g>
	<circle class="st2" cx="30" cy="30" r="25"/>
</g>
</svg>
