<?xml version="1.0" encoding="utf-8"?>
<!-- Generator: Adobe Illustrator 22.1.0, SVG Export Plug-In . SVG Version: 6.00 Build 0)  -->
<svg version="1.1" id="Layer_1" xmlns="http://www.w3.org/2000/svg" xmlns:xlink="http://www.w3.org/1999/xlink" x="0px" y="0px"
	 viewBox="0 0 60 60" style="enable-background:new 0 0 60 60;" xml:space="preserve">
<style type="text/css">
	.st0{fill:#448196;stroke:#7EC8E3;stroke-width:1.7637;stroke-miterlimit:10;}
	.st1{fill:#853D2E;stroke:#FFD98E;stroke-width:1.7637;stroke-miterlimit:10;}
	.st2{fill:#853D2E;stroke:#DE884F;stroke-width:1.7637;stroke-miterlimit:10;}
	.st3{fill:#DE884F;}
	.st4{fill:#853D2E;}
	.st5{fill:none;stroke:#853D2E;stroke-width:3.2969;}
	.st6{fill:#DE884F;stroke:#853D2E;stroke-width:3.2969;}
	.st7{fill:#FFFFFF;stroke:#231F20;}
	.st8{fill:#FFD98E;}
	.st9{fill:#7EC8E3;}
	.st10{fill:#DE884F;stroke:#853D2E;stroke-width:1.7637;stroke-miterlimit:10;}
</style>
<path class="st1" d="M48.8,58.7H11.2c-5.5,0-9.9-4.5-9.9-9.9V11.2c0-5.5,4.5-9.9,9.9-9.9h37.5c5.5,0,9.9,4.5,9.9,9.9v37.5
	C58.7,54.3,54.3,58.7,48.8,58.7z"/>
<g>
	<path class="st8" d="M33.9,39.4c0.1,0.2,0.1,0.4,0.1,0.5c0,0.5-0.2,0.9-0.7,1.2c-0.4,0.3-1,0.4-1.6,0.4c-0.5,0-0.9-0.1-1.2-0.3
		c-0.3-0.2-0.6-0.5-0.7-0.9L28.6,36l-7.4,0c-0.1,0.5-0.3,1-0.4,1.5c-0.1,0.5-0.3,0.9-0.4,1.3L20,40.3c-0.1,0.4-0.4,0.7-0.7,0.9
		c-0.3,0.2-0.7,0.3-1.2,0.3c-0.6,0-1.1-0.1-1.6-0.4c-0.4-0.3-0.7-0.7-0.7-1.2c0-0.1,0-0.3,0.1-0.5l4.5-13.6l1.1-3.4
		c0.4-1.4,0.9-2.4,1.5-3c0.5-0.6,1.2-0.9,2.1-0.9c0.8,0,1.5,0.3,2,0.8c0.5,0.5,0.9,1.5,1.4,2.8c0.9,2.8,2,6.3,3.2,10.5h0.9
		c0.4,0,0.8,0.1,1.1,0.4c0.3,0.3,0.4,0.7,0.4,1.3c0,1.2-0.4,1.8-1.1,1.8h-0.2L33.9,39.4z M27.6,32.4C27,30,26.5,28,26,26.5
		c0-0.1-0.1-0.3-0.1-0.4c0-0.1-0.1-0.2-0.1-0.3c-0.2-0.6-0.3-1-0.4-1.3C25.2,24.2,25.1,24,25,24c-0.1,0-0.2,0.1-0.3,0.4
		c-0.1,0.3-0.2,0.6-0.3,1c-0.1,0.4-0.2,0.7-0.2,0.8l-1.8,6.1L27.6,32.4z"/>
	<path class="st8" d="M39.6,23.3c-0.5-0.5-0.7-1.1-0.7-1.8c0-0.7,0.2-1.4,0.7-1.8c0.5-0.5,1.1-0.7,1.9-0.7c0.7,0,1.4,0.2,1.9,0.7
		s0.7,1.1,0.7,1.8c0,0.7-0.2,1.4-0.7,1.9S42.2,24,41.5,24C40.7,24,40.1,23.8,39.6,23.3z M39.6,40.6c-0.4-0.3-0.5-0.7-0.5-1.2
		L39.3,27c0-0.5,0.2-0.9,0.6-1.2c0.4-0.3,0.8-0.4,1.4-0.4c0.6,0,1.1,0.1,1.5,0.4c0.4,0.3,0.5,0.7,0.5,1.2L43,39.4
		c0,0.5-0.2,0.9-0.6,1.2C42,40.9,41.6,41,41,41C40.4,41,39.9,40.9,39.6,40.6z"/>
</g>
</svg>
