<?xml version="1.0" encoding="utf-8"?>
<!-- Generator: Adobe Illustrator 22.1.0, SVG Export Plug-In . SVG Version: 6.00 Build 0)  -->
<svg version="1.1" id="Layer_1" xmlns="http://www.w3.org/2000/svg" xmlns:xlink="http://www.w3.org/1999/xlink" x="0px" y="0px"
	 viewBox="0 0 60 60" style="enable-background:new 0 0 60 60;" xml:space="preserve">
<style type="text/css">
	.st0{fill:#448196;stroke:#7EC8E3;stroke-width:1.7637;stroke-miterlimit:10;}
	.st1{fill:#853D2E;stroke:#FFD98E;stroke-width:1.7637;stroke-miterlimit:10;}
	.st2{fill:#853D2E;stroke:#DE884F;stroke-width:1.7637;stroke-miterlimit:10;}
	.st3{fill:#DE884F;}
	.st4{fill:#853D2E;}
	.st5{fill:none;stroke:#853D2E;stroke-width:3.2969;}
	.st6{fill:#DE884F;stroke:#853D2E;stroke-width:3.2969;}
	.st7{fill:#FFFFFF;stroke:#231F20;}
	.st8{fill:#FFD98E;}
	.st9{fill:#7EC8E3;}
	.st10{fill:#DE884F;stroke:#853D2E;stroke-width:1.7637;stroke-miterlimit:10;}
</style>
<path class="st2" d="M48.8,58.7H11.2c-5.5,0-9.9-4.5-9.9-9.9V11.2c0-5.5,4.5-9.9,9.9-9.9h37.5c5.5,0,9.9,4.5,9.9,9.9v37.5
	C58.7,54.3,54.3,58.7,48.8,58.7z"/>
<g>
	<path class="st3" d="M29.7,39.4c0.1,0.2,0.1,0.4,0.1,0.5c0,0.5-0.2,0.9-0.7,1.2c-0.4,0.3-1,0.4-1.6,0.4c-0.5,0-0.9-0.1-1.2-0.3
		c-0.3-0.2-0.6-0.5-0.7-0.9L24.5,36l-7.4,0c-0.1,0.5-0.3,1-0.4,1.5c-0.1,0.5-0.3,0.9-0.4,1.3l-0.5,1.6c-0.1,0.4-0.4,0.7-0.7,0.9
		c-0.3,0.2-0.7,0.3-1.2,0.3c-0.6,0-1.1-0.1-1.6-0.4c-0.4-0.3-0.7-0.7-0.7-1.2c0-0.1,0-0.3,0.1-0.5l4.5-13.6l1.1-3.4
		c0.4-1.4,0.9-2.4,1.5-3c0.5-0.6,1.2-0.9,2.1-0.9c0.8,0,1.5,0.3,2,0.8c0.5,0.5,0.9,1.5,1.4,2.8c0.9,2.8,2,6.3,3.2,10.5h0.9
		c0.4,0,0.8,0.1,1.1,0.4c0.3,0.3,0.4,0.7,0.4,1.3c0,1.2-0.4,1.8-1.1,1.8h-0.2L29.7,39.4z M23.5,32.4c-0.6-2.4-1.2-4.4-1.7-6
		c0-0.1-0.1-0.3-0.1-0.4c0-0.1-0.1-0.2-0.1-0.3c-0.2-0.6-0.3-1-0.4-1.3C21.1,24.2,21,24,20.8,24c-0.1,0-0.2,0.1-0.3,0.4
		c-0.1,0.3-0.2,0.6-0.3,1c-0.1,0.4-0.2,0.7-0.2,0.8l-1.8,6.1L23.5,32.4z"/>
	<path class="st3" d="M46.8,26.8c1,1.3,1.5,3.2,1.5,5.8l0,7.3c0,0.4-0.2,0.7-0.5,1c-0.4,0.2-0.8,0.3-1.4,0.3c-0.6,0-1-0.1-1.4-0.3
		c-0.4-0.2-0.6-0.5-0.6-0.9v-7.5c0-1.6-0.2-2.8-0.5-3.5S42.8,28,42,28c-0.8,0-1.5,0.3-2,1c-0.5,0.7-0.9,1.8-1.2,3.3
		c-0.1,0.9-0.2,2-0.2,3.2l0,4.3c0,0.5-0.2,0.8-0.5,1.1c-0.4,0.2-0.8,0.4-1.4,0.4c-0.6,0-1.1-0.1-1.4-0.4c-0.4-0.3-0.5-0.6-0.5-1.1
		c0-3.6-0.1-7.1-0.2-10.6c0-0.3-0.1-0.6-0.2-0.9c-0.1-0.3-0.2-0.5-0.4-0.7c-0.1-0.2-0.2-0.4-0.3-0.4c-0.1-0.2-0.2-0.4-0.2-0.6
		c0-0.4,0.2-0.7,0.7-1.1c0.5-0.3,0.9-0.5,1.3-0.5c0.2,0,0.4,0.1,0.6,0.2c0.2,0.1,0.4,0.4,0.6,0.7c0.5,0.7,0.8,1.3,0.8,1.9V28
		c0.4-0.9,1-1.6,1.8-2.2c0.8-0.6,1.9-0.9,3.2-0.9C44.3,24.9,45.8,25.5,46.8,26.8z"/>
</g>
</svg>
