<?xml version="1.0" encoding="utf-8"?>
<!-- Generator: Adobe Illustrator 22.1.0, SVG Export Plug-In . SVG Version: 6.00 Build 0)  -->
<svg version="1.1" id="Layer_1" xmlns="http://www.w3.org/2000/svg" xmlns:xlink="http://www.w3.org/1999/xlink" x="0px" y="0px"
	 viewBox="0 0 511 511" style="enable-background:new 0 0 511 511;" xml:space="preserve">
<style type="text/css">
	.st0{fill:#DE884F;stroke:#853D2E;stroke-width:26.1611;}
	.st1{fill:#853D2E;}
</style>
<circle class="st0" cx="255.5" cy="255.5" r="236"/>
<g>
	<path class="st1" d="M335.1,359.9c-23.3,16.4-50.7,25.1-79.3,25.1c-14.9,0-29.5-2.4-43.5-7c-1.7-0.6-3.5-0.4-5,0.5L172,398.9
		c-1.6,0.9-3,0.4-3.7,0c-0.6-0.3-1.9-1.3-1.9-3.2c0,0,0-0.1,0-0.1v-40.6c0-1.8-0.8-3.4-2.1-4.6c-29.4-26.1-46.3-63.7-46.3-103
		c0-28.6,8.7-56,25.1-79.3c2-2.8,1.3-6.6-1.5-8.6c-2.8-2-6.6-1.3-8.6,1.5c-17.9,25.4-27.4,55.3-27.4,86.4
		c0,41.9,17.6,81.9,48.4,110.3v37.9c-0.1,5.7,3,11,7.9,14c2.5,1.5,5.3,2.2,8.1,2.2c2.7,0,5.5-0.7,8-2.2l32.9-19
		c14.4,4.5,29.5,6.8,44.8,6.8c31.2,0,61-9.5,86.4-27.4c2.8-2,3.4-5.8,1.5-8.6C341.7,358.6,337.9,358,335.1,359.9z"/>
	<path class="st1" d="M361.9,141.3c-28.3-28.3-66-43.9-106.1-43.9c-31.2,0-61,9.5-86.4,27.4c-2.8,2-3.4,5.8-1.5,8.6
		c2,2.8,5.8,3.4,8.6,1.5c23.3-16.4,50.7-25.1,79.3-25.1c75.9,0,137.7,61.8,137.7,137.7c0,28.6-8.7,56-25.1,79.3
		c-2,2.8-1.3,6.6,1.5,8.6c1.1,0.8,2.3,1.1,3.5,1.1c1.9,0,3.8-0.9,5-2.6c17.9-25.4,27.4-55.3,27.4-86.4
		C405.8,207.3,390.2,169.6,361.9,141.3z"/>
	<path class="st1" d="M346.8,197.2c-5.4-4.8-13.4-4.6-19.1,0.3l-43.5,33c0,0,0,0-0.1,0.1c-0.5,0.4-1.2,0.9-2.8-0.2l-34.1-25.1
		c-7-5.1-15.5-7.3-23.3-5.9c-7,1.3-12.8,5.2-16.8,11.3l-43.5,66.6c-5.6,8.3-3.4,16.1,1.3,20.3c2.6,2.3,5.9,3.5,9.2,3.5
		c3.4,0,6.9-1.3,9.8-3.8l43.5-33c0,0,0,0,0.1-0.1c0.5-0.4,1.2-0.9,2.8,0.2l34.1,25.1c7,5.1,15.5,7.3,23.3,5.9
		c7-1.3,12.8-5.2,16.8-11.3l43.5-66.6C353.7,209.2,351.5,201.4,346.8,197.2z M337.9,210.6c0,0-0.1,0.1-0.1,0.1l-43.5,66.6
		c-2.1,3.3-5.1,5.3-8.7,5.9c-4.5,0.8-9.6-0.6-13.9-3.7l-34.2-25.2c-0.1,0-0.1-0.1-0.2-0.1c-5.7-3.9-12.2-3.8-17.3,0.2l-43.7,33.1
		c-0.1,0.1-0.3,0.2-0.4,0.3c-1.3,1.1-2.4,0.9-3,0.4c-1-0.9-0.2-2.7,0.8-4.2c0,0,0.1-0.1,0.1-0.1l43.5-66.6c2.1-3.3,5.1-5.3,8.7-5.9
		c4.5-0.8,9.6,0.6,13.9,3.7l34.2,25.2c0.1,0,0.1,0.1,0.2,0.1c5.7,3.9,12.2,3.8,17.3-0.2l43.7-33.1c0.1-0.1,0.3-0.2,0.4-0.3
		c1.3-1.1,2.4-0.9,3-0.4C339.6,207.3,338.9,209.1,337.9,210.6z"/>
	<path class="st1" d="M154.1,151.7c1.6,0,3.1-0.6,4.3-1.8c2.4-2.4,2.4-6.3,0-8.7c-2.4-2.4-6.3-2.4-8.7,0l0,0c-2.4,2.4-2.4,6.3,0,8.7
		C150.9,151.1,152.5,151.7,154.1,151.7z"/>
	<path class="st1" d="M353,344.9L353,344.9c-2.3,2.5-2.1,6.4,0.4,8.7c1.2,1.1,2.7,1.6,4.1,1.6c1.7,0,3.3-0.7,4.5-2
		c2.3-2.5,2.1-6.4-0.4-8.7C359.2,342.2,355.3,342.4,353,344.9z"/>
</g>
</svg>
