<?xml version="1.0" encoding="utf-8"?>
<!-- Generator: Adobe Illustrator 22.1.0, SVG Export Plug-In . SVG Version: 6.00 Build 0)  -->
<svg version="1.1" id="Layer_1" xmlns="http://www.w3.org/2000/svg" xmlns:xlink="http://www.w3.org/1999/xlink" x="0px" y="0px"
	 viewBox="0 0 178 799.4" style="enable-background:new 0 0 178 799.4;" xml:space="preserve">
<style type="text/css">
	.st0{enable-background:new    ;}
	.st1{fill:#853D2E;}
</style>
<g>
	<g class="st0">
		<path class="st1" d="M59.4,593c1.5-0.3,3.1-0.4,4.6-0.4c4.9,0,8.7,1,11.5,3c4.3,3.1,6.3,7.7,6,13.9c-0.3,5.6-2.9,9.4-7.9,11.3
			h-3.8c-1.2,0-2.1,0.5-2.9,1.4L67,623c14.7,5.8,27.1,8.7,37.1,8.7c3.4,0,4.5,0,3.5,0.1c1.3-0.1,2.6-0.9,4.1-2.3
			c-0.4-4-1.6-6.5-3.7-7.5c-1.3-0.5-2.5,0-3.5,1.5c-0.2,1.5-0.5,2.4-0.8,2.7c-0.5,1-1.2,1.5-2.2,1.6c-2.3,0.2-4.7-0.5-7.4-2
			l-2.7-3.4c0-0.9-0.2-3.3-0.5-7.2c-0.3-3.9-0.5-6.4-0.5-7.7c0-5.3,1.3-9.2,4-11.9c2.5-1.7,6-2.6,10.2-2.6c5,0,10.1,1,15.4,3
			c5.8,2.2,10.7,5.3,14.7,9.3c4.5,4.5,7.2,9.6,7.9,15.1c0.4,2.8,0.5,5.3,0.5,7.4c0,8-2.6,15.1-7.8,21.4c-3.6,4.4-9.1,7.8-16.4,10.2
			c-7.3,2.5-15.5,3.7-24.7,3.7c-12.4,0-23.9-2-34.4-6.1c-10.4-4.1-17.9-9.6-22.5-16.5c-2.5-4.7-3.7-10-3.7-15.9c0-5.2,1-10,3.1-14.3
			c7.3-10.6,14.7-16.3,22.4-17V593z"/>
		<path class="st1" d="M130.6,505.6h0.1c4.4,0.8,7.1,3.5,8.2,8c0.5,2.3,0.8,4.6,0.8,7.1c0,4.5-1,8.1-3.1,10.9
			c-2.6,2-4.4,3.2-5.2,3.5c-2.4,1.2-5.4,1.8-9.1,1.8c-0.2,3.6,0,7.8,0.5,12.4c0.8-0.2,2-0.4,3.7-0.5c3.7,0,7.6,1,11.6,3.1
			c3.7,2.6,5.6,6.5,5.6,11.6c0,2.5-0.5,5.5-1.4,9.1l-0.3,0.3c-3.8,7.7-13.3,11.6-28.5,11.6c-1,0-3.4-0.1-7.1-0.3
			c-14.3-0.7-25.4-2-33.5-4c-11.5-2.7-21.7-7.5-30.8-14.4c-7-5.4-10.5-13.1-10.5-23.3c0-10.9,3.4-19.1,10.2-24.7c4-3.3,8.7-5.6,14-7
			c19.2-5,36-7.5,50.6-7.5C115,503.4,123,504.1,130.6,505.6z M94.8,540.1c-7.4-0.6-18.9-0.2-34.5,1.4c-0.6,0.6-0.4,1.6,0.7,2.9
			c7.7,1.2,14,2,18.8,2.6c8.5,0.9,13.3,1.2,14.4,1c1-0.5,1.5-1.2,1.5-2.3c0-0.4-0.2-1.3-0.5-2.8C95,541.2,94.8,540.4,94.8,540.1z"/>
		<path class="st1" d="M121.2,438.1v0.1c7.8,1,13,3.9,15.5,8.6c2.6,6.5,4,13.2,4,19.9c0,19.3-10.4,28.9-31.2,28.9h-8
			c-1,0-2.5,0-4.6-0.1c-1.6-0.1-2.8-0.1-3.5-0.1c-18.4,0.5-33-0.3-44-2.3c-4.6-1.6-7.8-3.5-9.5-5.7c-1.7-2.1-2.8-5.4-3.1-9.9
			c-0.1-1-0.1-2.1-0.1-3.3c0-3.9,0.8-6.7,2.5-8.5c0.7-0.7,2.9-2.1,6.4-4.1c6-1.5,13.6-2.3,22.9-2.3c5.7,0,14.7,0.5,26.9,1.6
			c8.5,0.7,12.9,0.8,13.5,0.3c-1.7-3.5-2.6-7.7-2.6-12.8c0-1.3,0.1-2.2,0.4-2.7c0.9-2.6,3-4.6,6.1-5.9c2.1-0.8,5.1-1.4,9-1.8H121.2z
			"/>
		<path class="st1" d="M121.2,373.5v0.1c7.8,1,13,3.9,15.5,8.6c2.6,6.5,4,13.2,4,19.9c0,19.3-10.4,28.9-31.2,28.9h-8
			c-1,0-2.5,0-4.6-0.1c-1.6-0.1-2.8-0.1-3.5-0.1c-18.4,0.5-33-0.3-44-2.3c-4.6-1.6-7.8-3.5-9.5-5.7c-1.7-2.1-2.8-5.4-3.1-9.9
			c-0.1-1-0.1-2.1-0.1-3.3c0-3.9,0.8-6.7,2.5-8.5c0.7-0.7,2.9-2.1,6.4-4.1c6-1.5,13.6-2.3,22.9-2.3c5.7,0,14.7,0.5,26.9,1.6
			c8.5,0.7,12.9,0.8,13.5,0.3c-1.7-3.5-2.6-7.7-2.6-12.8c0-1.3,0.1-2.2,0.4-2.7c0.9-2.6,3-4.6,6.1-5.9c2.1-0.8,5.1-1.4,9-1.8H121.2z
			"/>
		<path class="st1" d="M76.3,304.8c1.4-0.4,2.8-0.5,4.2-0.4c4.8,0,8.9,2,12.1,5.9c3.1,3.5,4.4,7.4,4,11.5c-0.3,0.7-0.3,2.1-0.1,4.1
			c1.1-0.2,4,0.1,8.7,1c2.2,0,3.8-1,4.9-2.9c-1-3.7-1-6.8,0-9.1c1.5-3.7,3.9-5.8,7.4-6.1c3.9-0.5,7.9,0.7,11.9,3.4
			c4,2.7,7.4,6.5,10.2,11.3c2.5,4.3,3.7,9.3,3.7,15.1c0,5.1-1,9.7-2.9,13.8c-0.8,1.7-3.4,4.3-7.6,7.8c-6.2,3.7-19.2,5.6-39.1,5.7
			c-11.5,0.1-24.5-0.9-39.3-2.9c-8.5-1.2-14.1-3.6-16.6-7.4l-2.3-22.8c-0.8-3.9-1.2-7.6-1.2-11.2c0-7.1,1.8-11.3,5.3-12.5
			c1.5-0.5,3.1-0.8,4.9-0.8c3.9,0,7.1,1.5,9.5,4.4c2.5,2.9,3.7,7,3.7,12.1c0,1.3,0,2.3,0,3c1.4,0.6,3.5,1,6.5,1.1
			c3.8,0.2,5.9,0.3,6.5,0.4c1.3-0.3,2.1-1.2,2.4-2.9c-2.1-2.6-3.1-6-3.1-10C69.9,311.8,72,307.9,76.3,304.8z"/>
		<path class="st1" d="M128.1,218.4v0.1c2.7,1.3,5.5,3.4,8.3,6.4c3.5,3.9,5.5,7.9,6,11.9c0.8,7.7-7,15.6-23.6,23.7
			c2.3-0.3,4.4-0.4,6.1-0.4c5.6,0,10,1.4,13.2,4.1c2.9,4.2,4.3,8.4,4.3,12.5c0,1.8-0.2,3.5-0.5,4.9c-1.4,5.4-3.1,8.9-5.2,10.5
			c-2.7,2.2-7.6,3.3-14.7,3.3h-5.4c-0.3,0.3-8.4,0.2-24.3-0.3c-18-0.5-31.8-1.6-41.2-3.1c-6.8-1.2-11.5-6-14-14.4
			c-1.2-4-2.4-11.9-3.5-23.6c0.5-13.9,5.1-23.4,13.9-28.6c8.8-3.9,16.9-5.8,24.3-5.7c7.5,0.1,13.9,2.1,18.9,6.1
			c0.8,0.6,3.2,3.2,7.2,7.8c11.1-10.3,20.4-15.4,27.8-15.4C126.2,218.1,127,218.2,128.1,218.4z M64.6,257.3v0.1
			c-0.2,0.5-0.3,1-0.3,1.3c0,0.4,0.6,1.8,1.9,4.2c0.4,0.4,2.7,0.5,7,0.4c5-0.1,9.7-0.1,14.2-0.1c-1.2-3.4-2.9-6.3-5.1-8.7
			c-2.2-2.4-4.6-3.6-7-3.6C71.9,251,68.3,253.1,64.6,257.3z"/>
		<path class="st1" d="M37.6,204v-0.1c-1.2-2.3-1.8-4.7-1.8-7.4c0-5.6,2.2-9.7,6.7-12.1c2.2-2,6.2-3.9,12-5.7
			c7.6-2.4,11.8-3.7,12.4-4.1c-17.1-4-28.3-8.7-33.5-14c-1-2.5-1.5-5.2-1.5-8c0-4.3,1.1-7.7,3.4-10.2c3.2-4.8,8.4-7.2,15.7-7.2
			c7.5,0.8,15.7,3.1,24.4,7c5.1,2.3,12.6,6.1,22.5,11.5c3.9,0,9.7,0,17.3,0.1c6.7,0.2,12.3,1.2,16.8,3.1c5.4,2.4,9,6.3,10.9,11.9
			c0.2,1.5,0.3,2.5,0.3,3.1c0,7.3-2.9,12.3-8.6,15.1c-3.6,1.3-8.4,1.9-14.3,1.9c-2.8,0-5.5,0-7.9,0c-3.3-0.1-5.7-0.1-7.4,0
			c-25.4,14.8-43.5,22.2-54.3,22.2C44.3,210.9,40,208.6,37.6,204z"/>
	</g>
</g>
</svg>
