<?xml version="1.0" encoding="utf-8"?>
<!-- Generator: Adobe Illustrator 22.1.0, SVG Export Plug-In . SVG Version: 6.00 Build 0)  -->
<svg version="1.1" id="Layer_1" xmlns="http://www.w3.org/2000/svg" xmlns:xlink="http://www.w3.org/1999/xlink" x="0px" y="0px"
	 viewBox="0 0 800 550" style="enable-background:new 0 0 800 550;" xml:space="preserve">
<style type="text/css">
	.st0{clip-path:url(#SVGID_4_);fill:#FFD98E;}
	.st1{fill:#FFD98E;}
	.st2{fill:#853D2E;}
	.st3{fill:#FFFFFF;}
	.st4{fill:#DE884F;}
	.st5{fill:#F6B36C;}
	.st6{fill:#FFF8C4;}
	.st7{fill:#DE884F;stroke:#853D2E;stroke-width:5;}
	.st8{fill:#DE884F;stroke:#853D2E;stroke-width:4;}
	.st9{fill:#C28B5E;}
	.st10{fill:#DE884F;stroke:#853D2E;stroke-width:4.1224;}
	.st11{fill:#FFFFFF;stroke:#853D2E;stroke-width:2.8306;}
	.st12{fill:#FFFFFF;stroke:#853D2E;stroke-width:3;}
	.st13{fill:none;stroke:#853D2E;stroke-width:3;}
	.st14{fill:#DE884F;stroke:#853D2E;stroke-width:3.2969;}
	.st15{fill:#DE884F;stroke:#853D2E;stroke-width:5.487;}
	.st16{fill:none;stroke:#853D2E;stroke-width:3.2969;}
	.st17{fill:#DE884F;stroke:#853D2E;stroke-width:3;stroke-miterlimit:10;}
	.st18{fill:none;stroke:#853D2E;stroke-width:3;stroke-miterlimit:10;}
	.st19{clip-path:url(#SVGID_6_);}
	.st20{clip-path:url(#SVGID_8_);}
	.st21{fill:#634538;}
	.st22{clip-path:url(#SVGID_8_);fill:#FFF8C4;}
	.st23{clip-path:url(#SVGID_8_);fill:#634538;}
	.st24{clip-path:url(#SVGID_8_);fill:#FEE1B9;}
	.st25{opacity:0.5;clip-path:url(#SVGID_8_);fill:#634538;}
	.st26{opacity:0.8;clip-path:url(#SVGID_8_);}
	.st27{opacity:0.6;clip-path:url(#SVGID_8_);}
	.st28{fill:#51392D;}
	.st29{clip-path:url(#SVGID_8_);fill:#D2D9FF;}
	.st30{clip-path:url(#SVGID_8_);fill:#FFFFFF;}
	.st31{opacity:0.4;clip-path:url(#SVGID_8_);}
	.st32{clip-path:url(#SVGID_8_);fill:#51392D;}
	.st33{opacity:0.5;clip-path:url(#SVGID_8_);}
	.st34{opacity:0.3;clip-path:url(#SVGID_8_);}
	.st35{fill:none;stroke:#853D2E;stroke-width:6;stroke-miterlimit:10;}
	.st36{clip-path:url(#SVGID_10_);}
	.st37{clip-path:url(#SVGID_12_);}
	.st38{clip-path:url(#SVGID_12_);fill:#FFF8C4;}
	.st39{clip-path:url(#SVGID_12_);fill:#FFFFFF;}
	.st40{clip-path:url(#SVGID_12_);fill:#FFD98E;}
	.st41{clip-path:url(#SVGID_12_);fill:#634538;}
	.st42{clip-path:url(#SVGID_12_);fill:#FEE1B9;}
	.st43{clip-path:url(#SVGID_14_);}
	.st44{fill:#FEE1B9;}
	.st45{fill:#262626;stroke:#51392D;stroke-width:0.851;stroke-miterlimit:10;}
	.st46{fill:#161616;}
	.st47{fill:#AABEDB;}
	.st48{clip-path:url(#SVGID_16_);}
	.st49{clip-path:url(#SVGID_18_);fill:#FFF8C4;}
	.st50{clip-path:url(#SVGID_18_);fill:#F6B36C;}
	.st51{clip-path:url(#SVGID_18_);fill:#FEE1B9;}
	.st52{clip-path:url(#SVGID_18_);}
	.st53{clip-path:url(#SVGID_18_);fill:#FFFFFF;}
	.st54{clip-path:url(#SVGID_18_);fill:#FFD98E;}
	.st55{clip-path:url(#SVGID_18_);fill:#634538;}
	.st56{clip-path:url(#SVGID_18_);fill:#51392D;}
	.st57{fill:#E89A84;}
	.st58{fill:#FEE1B9;stroke:#51392D;stroke-width:5;stroke-miterlimit:10;}
	.st59{fill:#634538;stroke:#51392D;stroke-width:3;stroke-miterlimit:10;}
	.st60{clip-path:url(#SVGID_20_);}
	.st61{clip-path:url(#SVGID_20_);fill:#FFF8C4;}
	.st62{clip-path:url(#SVGID_20_);fill:#FFFFFF;}
	.st63{clip-path:url(#SVGID_20_);fill:#FFD98E;}
	.st64{clip-path:url(#SVGID_20_);fill:#634538;}
	.st65{clip-path:url(#SVGID_20_);fill:#FEE1B9;}
	.st66{clip-path:url(#SVGID_22_);fill:#FFF8C4;}
	.st67{clip-path:url(#SVGID_22_);fill:#F6B36C;}
	.st68{clip-path:url(#SVGID_22_);fill:#FEE1B9;}
	.st69{clip-path:url(#SVGID_22_);}
	.st70{clip-path:url(#SVGID_22_);fill:#FFFFFF;}
	.st71{clip-path:url(#SVGID_22_);fill:#FFD98E;}
	.st72{clip-path:url(#SVGID_22_);fill:#634538;}
	.st73{clip-path:url(#SVGID_22_);fill:#51392D;}
	.st74{fill:#F6E1C9;}
	.st75{clip-path:url(#SVGID_23_);fill:#F6B36C;}
	.st76{fill:none;stroke:#FFF8C4;stroke-width:1.1613;stroke-linecap:round;stroke-linejoin:round;stroke-miterlimit:10;}
	.st77{fill:#DD6B50;}
	.st78{clip-path:url(#SVGID_24_);fill:#F6B36C;}
	.st79{fill:none;stroke:#FFF8C4;stroke-width:1.1951;stroke-linecap:round;stroke-linejoin:round;stroke-miterlimit:10;}
	.st80{fill:#DD5050;}
	.st81{fill:#DE884F;stroke:#853D2E;stroke-width:4.0822;}
	.st82{fill:#DE884F;stroke:#853D2E;stroke-width:3.7391;}
	.st83{clip-path:url(#SVGID_26_);}
	.st84{clip-path:url(#SVGID_26_);fill:#FFF8C4;}
	.st85{clip-path:url(#SVGID_26_);fill:#634538;}
	.st86{clip-path:url(#SVGID_26_);fill:#FEE1B9;}
	.st87{opacity:0.5;clip-path:url(#SVGID_26_);fill:#634538;}
	.st88{opacity:0.8;clip-path:url(#SVGID_26_);}
	.st89{opacity:0.6;clip-path:url(#SVGID_26_);}
	.st90{clip-path:url(#SVGID_26_);fill:#D2D9FF;}
	.st91{clip-path:url(#SVGID_26_);fill:#FFFFFF;}
	.st92{opacity:0.4;clip-path:url(#SVGID_26_);}
	.st93{clip-path:url(#SVGID_26_);fill:#51392D;}
	.st94{opacity:0.5;clip-path:url(#SVGID_26_);}
	.st95{opacity:0.3;clip-path:url(#SVGID_26_);}
	.st96{clip-path:url(#SVGID_28_);fill:#FFD98E;}
	.st97{clip-path:url(#SVGID_28_);}
	.st98{opacity:0.16;fill:#1B1444;}
	.st99{fill:#FFB6B3;}
	.st100{opacity:0.26;fill:#E89A84;}
	.st101{opacity:0.26;fill:#E98689;}
	.st102{fill:none;stroke:#E98481;stroke-linecap:round;stroke-linejoin:round;stroke-miterlimit:10;}
	.st103{fill:url(#SVGID_29_);}
	.st104{fill:#E98481;}
	.st105{fill:#DE884F;stroke:#853D2E;stroke-width:2.8955;stroke-miterlimit:10;}
	.st106{fill:none;stroke:#E98481;stroke-width:2.3454;stroke-linecap:round;stroke-linejoin:round;stroke-miterlimit:10;}
	.st107{fill:url(#SVGID_30_);}
	.st108{fill:none;stroke:#E98481;stroke-width:3.3956;stroke-linecap:round;stroke-linejoin:round;stroke-miterlimit:10;}
	.st109{fill:url(#SVGID_31_);}
	.st110{fill:#DE884F;stroke:#853D2E;stroke-width:5.5426;}
	.st111{clip-path:url(#SVGID_33_);}
	.st112{clip-path:url(#SVGID_35_);fill:#FFD98E;}
	.st113{clip-path:url(#SVGID_33_);fill:#FFD98E;}
	.st114{fill:url(#SVGID_36_);}
	.st115{clip-path:url(#SVGID_33_);fill:none;stroke:#853D2E;stroke-width:3;stroke-miterlimit:10;}
	.st116{clip-path:url(#SVGID_33_);fill:#853D2E;}
</style>
<g>
	<g>
		<path class="st1" d="M645.5,539c-2.5,0-4.7-1.3-5.9-3.4l-62.8-108.8c-1.2-2.1-1.2-4.7,0-6.8c1.2-2.1,3.4-3.4,5.9-3.4h125.6
			c2.5,0,4.7,1.3,5.9,3.4c1.2,2.1,1.2,4.7,0,6.8l-62.8,108.8C650.1,537.8,647.9,539,645.5,539z"/>
		<g>
			<path class="st2" d="M708.3,419.3c3.2,0,5.2,3.4,3.6,6.2L649,534.3c-0.8,1.4-2.2,2.1-3.6,2.1s-2.8-0.7-3.6-2.1l-62.8-108.8
				c-1.6-2.8,0.4-6.2,3.6-6.2H708.3 M708.3,413.9H582.6c-3.4,0-6.5,1.8-8.2,4.8c-1.7,3-1.7,6.5,0,9.5L637.2,537
				c1.7,3,4.8,4.8,8.2,4.8s6.5-1.8,8.2-4.8l62.8-108.8c1.7-3,1.7-6.5,0-9.5S711.7,413.9,708.3,413.9L708.3,413.9z"/>
		</g>
	</g>
	<g>
		<path class="st1" d="M68.3,474.1c-33.9,0-61.5-27.6-61.5-61.5V74.9c0-33.9,27.6-61.5,61.5-61.5h661.5c33.9,0,61.5,27.6,61.5,61.5
			v337.6c0,33.9-27.6,61.5-61.5,61.5H68.3z"/>
		<path class="st2" d="M729.8,15.9c32.6,0,59,26.4,59,59v337.6c0,32.6-26.4,59-59,59H68.3c-32.6,0-59-26.4-59-59V74.9
			c0-32.6,26.4-59,59-59H729.8 M729.8,10.9H68.3c-35.3,0-64,28.7-64,64v337.6c0,35.3,28.7,64,64,64h661.5c35.3,0,64-28.7,64-64V74.9
			C793.8,39.6,765.1,10.9,729.8,10.9L729.8,10.9z"/>
	</g>
</g>
</svg>
