<?xml version="1.0" encoding="utf-8"?>
<!-- Generator: Adobe Illustrator 22.1.0, SVG Export Plug-In . SVG Version: 6.00 Build 0)  -->
<svg version="1.1" id="Layer_1" xmlns="http://www.w3.org/2000/svg" xmlns:xlink="http://www.w3.org/1999/xlink" x="0px" y="0px"
	 viewBox="0 0 178 799.4" style="enable-background:new 0 0 178 799.4;" xml:space="preserve">
<style type="text/css">
	.st0{enable-background:new    ;}
	.st1{fill:#853D2E;}
</style>
<g>
	<g class="st0">
		<path class="st1" d="M107.5,619.9h0.1c0.5,0,1.1,0,1.9,0c0.9-0.1,1.5-0.1,1.9-0.1c13.3,0,22.3,5,27,15.1c2.6,5.6,4,11.7,4,18.1
			c0,8.6-2.4,15.7-7.2,21.1c-10.1,11.4-24.3,17.1-42.5,17c-8,0-17.1-1-27.3-2.9c-7.8-1.5-15-4.6-21.7-9.4c-3.3-2.4-5.9-5.8-8-10.3
			s-3.1-9.3-3.1-14.5c0-6,1.6-11.6,4.7-16.8c3.1-5.2,7.3-9.3,12.6-12.2c3.2-1.7,6.7-2.6,10.6-2.7c3.7-0.1,7.1,0.8,10.2,2.7
			c4.2,2.6,6.5,5.8,7,9.9c0.6,6.4-2.2,12-8.6,17c-0.3,0.1-1.4,0.3-3.3,0.5c-1.5,0.2-2.1,0.9-2,2.1l2.5,1.4
			c19.3,0.9,29.1,1.4,29.6,1.4c2.6,0,5.2-0.1,7.8-0.3c2.5-0.2,4.2-1.3,5-3.3c-0.1-2.1-2.4-5.7-7-10.9c-4.5-5.2-6.8-8.7-6.8-10.6
			c0-1.5,0.3-3,1-4.5C97.5,622.5,101.3,619.9,107.5,619.9z"/>
		<path class="st1" d="M118.6,535l0.1-0.1c7.4,2.4,13.2,6.5,17.4,12.5c4.3,6,6.4,12.8,6.4,20.7c0,14.4-5.5,25.7-16.4,33.7
			c-9.3,6.8-20.5,10.2-33.8,10.2c-6.1,0-11.7-0.5-16.9-1.6c-23.7-5-37.1-15.6-40.1-31.8c-0.3-1.5-0.4-3-0.4-4.6
			c0-7.3,2.4-14.3,7.2-21.2c4.8-6.9,10.7-11.5,17.6-13.8c15-5.1,26.7-7.6,35-7.6c7.1,0,15,1.3,23.7,4V535z M108.8,568.8h-0.1
			c-0.5-2.6-5.5-4-15.1-4c-5.5,0-10.7,0.5-15.3,1.5c-4.7,1-7.1,2.1-7.3,3.3c-0.5,2,1.6,3.8,6.5,5.5c4.9,1.6,10.3,2.5,16.2,2.5
			C104.6,577.5,109.7,574.6,108.8,568.8z"/>
		<path class="st1" d="M62.1,442.7H62c10.5-0.9,20.5-1.4,29.9-1.4c28.8,0,45,4.8,48.5,14.3c0.5,1.5,0.8,3.1,0.8,5
			c0,2.3-0.5,5.2-1.4,8.9c-2.5,4.5-17.1,11.5-43.8,20.9c7-1.6,13.9-2.5,20.8-2.5c7.6,0,13.6,1.1,18,3.3c2.1,1,3.9,2.8,5.4,5.4
			c1.5,2.6,2.1,5.1,1.8,7.4c-0.7,7.5-5.3,12.7-13.8,15.4c-5.6,1.8-14.4,2.7-26.2,2.7c-23,0-38.5-1-46.4-2.9
			c-5.9-1.5-10.8-4.8-14.6-10c-2.2-3-3.3-6.4-3.3-10.1c0-2,0.3-4,1-6c2.8-5.3,11.2-10.4,25.2-15.5c5.6-2.1,12.3-4,20-5.9
			c-6,0.9-11.3,1.7-15.8,2.3c-8,1.1-13.9,1.6-17.6,1.6c-4.5,0-8.1-1.2-11-3.5c-3.4-2.7-5-6.6-5-11.6c0-8.8,4.9-14.3,14.7-16.5
			C51.4,443.7,55.7,443.2,62.1,442.7z"/>
		<path class="st1" d="M52,357v-0.1c1.4-0.3,3.1-0.4,5.3-0.4c4.5,0.1,8,1.2,10.4,3.3c0.9,0.8,2,4.5,3.2,11c1.2,6.5,2,9.8,2.4,10
			c1,0.2,10.5-0.9,28.5-3.1c3.6-0.5,7.3-0.7,10.9-0.7c8.3,0,15.1,1.1,20.4,3.3c6.7,2.7,10,6.7,9.8,12c-0.3,8.5-3,14.5-8,17.9
			c-3.8,2.5-9.9,3.9-18.1,4c0.7,0-4-0.2-14.3-0.5L85,412.7c-5.5-0.4-10.2-1-14.2-1.8c0.2,0.5,0.3,1.4,0.3,2.5c0,3.1-0.5,6.2-1.5,9.3
			c-1.4,4.2-3.4,7-6,8.6c-3.7,2.2-7.2,3.3-10.5,3.3c-5.5,0-9.7-3-12.7-9c-3.9-7.7-5.9-17-5.9-27.9c0-5.7,0.5-11.7,1.6-18
			c1.1-3,2.8-7.5,5-13.6C43.9,360.9,47.5,357.9,52,357z"/>
		<path class="st1" d="M130.6,271.6h0.1c4.4,0.8,7.1,3.5,8.2,8c0.5,2.3,0.8,4.6,0.8,7.1c0,4.5-1,8.1-3.1,10.9
			c-2.6,2-4.4,3.2-5.2,3.5c-2.4,1.2-5.4,1.8-9.1,1.8c-0.2,3.6,0,7.8,0.5,12.4c0.8-0.2,2-0.4,3.7-0.5c3.7,0,7.6,1,11.6,3.1
			c3.7,2.6,5.6,6.5,5.6,11.6c0,2.5-0.5,5.5-1.4,9.1L142,339c-3.8,7.7-13.3,11.6-28.5,11.6c-1,0-3.4-0.1-7.1-0.3
			c-14.3-0.7-25.4-2-33.5-4c-11.5-2.7-21.7-7.5-30.8-14.4c-7-5.4-10.5-13.1-10.5-23.3c0-10.9,3.4-19.1,10.2-24.7c4-3.3,8.7-5.6,14-7
			c19.2-5,36-7.5,50.6-7.5C115,269.4,123,270.2,130.6,271.6z M94.8,306.1c-7.4-0.6-18.9-0.2-34.5,1.4c-0.6,0.6-0.4,1.6,0.7,2.9
			c7.7,1.2,14,2,18.8,2.6c8.5,0.9,13.3,1.2,14.4,1c1-0.5,1.5-1.2,1.5-2.3c0-0.4-0.2-1.3-0.5-2.8C95,307.3,94.8,306.4,94.8,306.1z"/>
		<path class="st1" d="M107.5,190h0.1c0.5,0,1.1,0,1.9,0c0.9-0.1,1.5-0.1,1.9-0.1c13.3,0,22.3,5,27,15.1c2.6,5.6,4,11.7,4,18.1
			c0,8.6-2.4,15.7-7.2,21.1c-10.1,11.5-24.3,17.1-42.5,17c-8,0-17.1-1-27.3-2.9c-7.8-1.5-15-4.6-21.7-9.4c-3.3-2.4-5.9-5.8-8-10.3
			c-2-4.5-3.1-9.3-3.1-14.5c0-6,1.6-11.6,4.7-16.8c3.1-5.2,7.3-9.3,12.6-12.2c3.2-1.7,6.7-2.6,10.6-2.7c3.7-0.1,7.1,0.8,10.2,2.7
			c4.2,2.6,6.5,5.8,7,9.9c0.6,6.4-2.2,12-8.6,17c-0.3,0.1-1.4,0.3-3.3,0.5c-1.5,0.2-2.1,0.9-2,2.1l2.5,1.4
			c19.3,0.9,29.1,1.4,29.6,1.4c2.6,0,5.2-0.1,7.8-0.3c2.5-0.2,4.2-1.3,5-3.3c-0.1-2.1-2.4-5.7-7-10.9c-4.5-5.2-6.8-8.7-6.8-10.6
			c0-1.5,0.3-3,1-4.5C97.5,192.6,101.3,190,107.5,190z"/>
		<path class="st1" d="M52,106.6v-0.1c1.4-0.3,3.1-0.4,5.3-0.4c4.5,0.1,8,1.2,10.4,3.3c0.9,0.8,2,4.5,3.2,11c1.2,6.5,2,9.8,2.4,10
			c1,0.2,10.5-0.9,28.5-3.1c3.6-0.5,7.3-0.7,10.9-0.7c8.3,0,15.1,1.1,20.4,3.3c6.7,2.7,10,6.7,9.8,12c-0.3,8.5-3,14.5-8,17.9
			c-3.8,2.5-9.9,3.9-18.1,4c0.7,0-4-0.2-14.3-0.5L85,162.3c-5.5-0.4-10.2-1-14.2-1.8c0.2,0.5,0.3,1.4,0.3,2.5c0,3.1-0.5,6.2-1.5,9.3
			c-1.4,4.2-3.4,7-6,8.6c-3.7,2.2-7.2,3.3-10.5,3.3c-5.5,0-9.7-3-12.7-9c-3.9-7.7-5.9-17-5.9-27.9c0-5.7,0.5-11.7,1.6-18
			c1.1-3,2.8-7.5,5-13.6C43.9,110.5,47.5,107.5,52,106.6z"/>
	</g>
</g>
</svg>
