<?xml version="1.0" encoding="utf-8"?>
<!-- Generator: Adobe Illustrator 22.1.0, SVG Export Plug-In . SVG Version: 6.00 Build 0)  -->
<svg version="1.1" id="Layer_1" xmlns="http://www.w3.org/2000/svg" xmlns:xlink="http://www.w3.org/1999/xlink" x="0px" y="0px"
	 viewBox="0 0 500 500" style="enable-background:new 0 0 500 500;" xml:space="preserve">
<style type="text/css">
	.st0{fill:#FFFFFF;}
	.st1{fill:#853D2E;}
	.st2{fill:#FFD98E;}
	.st3{fill:#DE884F;}
	.st4{fill:#F6B36C;}
	.st5{fill:#FFF8C4;}
	.st6{fill:#DE884F;stroke:#853D2E;stroke-width:5;}
	.st7{fill:#DE884F;stroke:#853D2E;stroke-width:4;}
	.st8{fill:#C28B5E;}
	.st9{fill:#DE884F;stroke:#853D2E;stroke-width:4.1224;}
	.st10{fill:#FFFFFF;stroke:#853D2E;stroke-width:2.8306;}
	.st11{fill:#FFFFFF;stroke:#853D2E;stroke-width:3;}
	.st12{fill:none;stroke:#853D2E;stroke-width:3;}
	.st13{fill:#DE884F;stroke:#853D2E;stroke-width:3.2969;}
	.st14{fill:#DE884F;stroke:#853D2E;stroke-width:5.487;}
	.st15{fill:none;stroke:#853D2E;stroke-width:3.2969;}
	.st16{fill:#DE884F;stroke:#853D2E;stroke-width:3;stroke-miterlimit:10;}
	.st17{fill:none;stroke:#853D2E;stroke-width:3;stroke-miterlimit:10;}
	.st18{clip-path:url(#SVGID_4_);}
	.st19{clip-path:url(#SVGID_6_);}
	.st20{fill:#634538;}
	.st21{clip-path:url(#SVGID_6_);fill:#FFF8C4;}
	.st22{clip-path:url(#SVGID_6_);fill:#634538;}
	.st23{clip-path:url(#SVGID_6_);fill:#FEE1B9;}
	.st24{opacity:0.5;clip-path:url(#SVGID_6_);fill:#634538;}
	.st25{opacity:0.8;clip-path:url(#SVGID_6_);}
	.st26{opacity:0.6;clip-path:url(#SVGID_6_);}
	.st27{fill:#51392D;}
	.st28{clip-path:url(#SVGID_6_);fill:#D2D9FF;}
	.st29{clip-path:url(#SVGID_6_);fill:#FFFFFF;}
	.st30{opacity:0.4;clip-path:url(#SVGID_6_);}
	.st31{clip-path:url(#SVGID_6_);fill:#51392D;}
	.st32{opacity:0.5;clip-path:url(#SVGID_6_);}
	.st33{opacity:0.3;clip-path:url(#SVGID_6_);}
	.st34{fill:none;stroke:#853D2E;stroke-width:6;stroke-miterlimit:10;}
	.st35{clip-path:url(#SVGID_8_);}
	.st36{clip-path:url(#SVGID_10_);}
	.st37{clip-path:url(#SVGID_10_);fill:#FFF8C4;}
	.st38{clip-path:url(#SVGID_10_);fill:#FFFFFF;}
	.st39{clip-path:url(#SVGID_10_);fill:#FFD98E;}
	.st40{clip-path:url(#SVGID_10_);fill:#634538;}
	.st41{clip-path:url(#SVGID_10_);fill:#FEE1B9;}
	.st42{clip-path:url(#SVGID_12_);}
	.st43{fill:#FEE1B9;}
	.st44{fill:#262626;stroke:#51392D;stroke-width:0.851;stroke-miterlimit:10;}
	.st45{fill:#161616;}
	.st46{fill:#AABEDB;}
	.st47{clip-path:url(#SVGID_14_);}
	.st48{clip-path:url(#SVGID_16_);fill:#FFF8C4;}
	.st49{clip-path:url(#SVGID_16_);fill:#F6B36C;}
	.st50{clip-path:url(#SVGID_16_);fill:#FEE1B9;}
	.st51{clip-path:url(#SVGID_16_);}
	.st52{clip-path:url(#SVGID_16_);fill:#FFFFFF;}
	.st53{clip-path:url(#SVGID_16_);fill:#FFD98E;}
	.st54{clip-path:url(#SVGID_16_);fill:#634538;}
	.st55{clip-path:url(#SVGID_16_);fill:#51392D;}
	.st56{fill:#E89A84;}
	.st57{fill:#FEE1B9;stroke:#51392D;stroke-width:5;stroke-miterlimit:10;}
	.st58{fill:#634538;stroke:#51392D;stroke-width:3;stroke-miterlimit:10;}
	.st59{clip-path:url(#SVGID_18_);}
	.st60{clip-path:url(#SVGID_18_);fill:#FFF8C4;}
	.st61{clip-path:url(#SVGID_18_);fill:#FFFFFF;}
	.st62{clip-path:url(#SVGID_18_);fill:#FFD98E;}
	.st63{clip-path:url(#SVGID_18_);fill:#634538;}
	.st64{clip-path:url(#SVGID_18_);fill:#FEE1B9;}
	.st65{clip-path:url(#SVGID_20_);fill:#FFF8C4;}
	.st66{clip-path:url(#SVGID_20_);fill:#F6B36C;}
	.st67{clip-path:url(#SVGID_20_);fill:#FEE1B9;}
	.st68{clip-path:url(#SVGID_20_);}
	.st69{clip-path:url(#SVGID_20_);fill:#FFFFFF;}
	.st70{clip-path:url(#SVGID_20_);fill:#FFD98E;}
	.st71{clip-path:url(#SVGID_20_);fill:#634538;}
	.st72{clip-path:url(#SVGID_20_);fill:#51392D;}
	.st73{fill:#F6E1C9;}
	.st74{clip-path:url(#SVGID_21_);fill:#F6B36C;}
	.st75{fill:none;stroke:#FFF8C4;stroke-width:1.1613;stroke-linecap:round;stroke-linejoin:round;stroke-miterlimit:10;}
	.st76{fill:#DD6B50;}
	.st77{clip-path:url(#SVGID_22_);fill:#F6B36C;}
	.st78{fill:none;stroke:#FFF8C4;stroke-width:1.1951;stroke-linecap:round;stroke-linejoin:round;stroke-miterlimit:10;}
	.st79{fill:#DD5050;}
	.st80{fill:#DE884F;stroke:#853D2E;stroke-width:4.0822;}
	.st81{fill:#DE884F;stroke:#853D2E;stroke-width:3.7391;}
	.st82{clip-path:url(#SVGID_24_);}
	.st83{clip-path:url(#SVGID_24_);fill:#FFF8C4;}
	.st84{clip-path:url(#SVGID_24_);fill:#634538;}
	.st85{clip-path:url(#SVGID_24_);fill:#FEE1B9;}
	.st86{opacity:0.5;clip-path:url(#SVGID_24_);fill:#634538;}
	.st87{opacity:0.8;clip-path:url(#SVGID_24_);}
	.st88{opacity:0.6;clip-path:url(#SVGID_24_);}
	.st89{clip-path:url(#SVGID_24_);fill:#D2D9FF;}
	.st90{clip-path:url(#SVGID_24_);fill:#FFFFFF;}
	.st91{opacity:0.4;clip-path:url(#SVGID_24_);}
	.st92{clip-path:url(#SVGID_24_);fill:#51392D;}
	.st93{opacity:0.5;clip-path:url(#SVGID_24_);}
	.st94{opacity:0.3;clip-path:url(#SVGID_24_);}
	.st95{clip-path:url(#SVGID_26_);fill:#FFD98E;}
	.st96{clip-path:url(#SVGID_26_);}
	.st97{opacity:0.16;fill:#1B1444;}
	.st98{fill:#FFB6B3;}
	.st99{opacity:0.26;fill:#E89A84;}
	.st100{opacity:0.26;fill:#E98689;}
	.st101{fill:none;stroke:#E98481;stroke-linecap:round;stroke-linejoin:round;stroke-miterlimit:10;}
	.st102{fill:url(#SVGID_27_);}
	.st103{fill:#E98481;}
	.st104{fill:#DE884F;stroke:#853D2E;stroke-width:2.8955;stroke-miterlimit:10;}
	.st105{fill:none;stroke:#E98481;stroke-width:2.3454;stroke-linecap:round;stroke-linejoin:round;stroke-miterlimit:10;}
	.st106{fill:url(#SVGID_28_);}
</style>
<g>
	<path class="st27" d="M122.2,252.1c0,0-67.5,97.6-2.7,132.4c0,0-15.4-10-8-42.8c0,0-6.7,30.8,15.4,40.1c0,0,114.9-47.9,225.3,4.1
		c0,0,69-195.4,0.7-241.5C284.7,98.3,122.2,252.1,122.2,252.1z"/>
	<g>
		<path class="st3" d="M416.8,502.5C402.9,383,337.8,359.6,251.3,357.2C137.2,350.4,89.3,419,87,500.6l0.1,1.9H416.8z"/>
		<g>
			<path class="st43" d="M143.1,502.5v-120c-37.4,26.3-54.7,69.9-56,118.1l0.1,1.9H143.1z"/>
			<path class="st43" d="M352.2,502.5h64.6c-7.6-65.8-30.8-102.5-64.6-122.5V502.5z"/>
		</g>
		<path class="st97" d="M144,502.5c-1.3-14.5-1.5-60.1-1.5-65.2c0-5.6-8.4,54.2-9.4,65.2H144z"/>
		<path class="st97" d="M360.7,502.5c-1.5-17.3-8.1-59.2-8.1-63.9c0-5-0.5,46.6-2,63.9H360.7z"/>
		<g>
			<path class="st98" d="M224.2,389.7c7.9,12.4,20.6,25.4,30.6,25.6c11.8,0.3,24.8-13.6,30.2-25.7l1-44.9l-60.8-1.3L224.2,389.7z"/>
		</g>
		<g>
			<path class="st43" d="M224.2,389.7c7.9,12.4,20.6,25.4,30.6,25.6c11.8,0.3,24.8-13.6,30.2-25.7l1-44.9l-60.8-1.3L224.2,389.7z"/>
		</g>
		<path class="st97" d="M224.9,360.1c18,5.8,40.5,9,60.9,0.3l0.3-15.9l-60.8-1.3L224.9,360.1z"/>
	</g>
	<g>
		<path class="st27" d="M261.6,71.1l-18,0.2C180,71.9,128.7,116.1,129,169.8l0.1,16.7l0.3,0c-1,27.6,0.8,58.1,0.8,58.1l15.1-0.3
			c4.1,49.4,50.2,88.8,107.5,89.9h0c60.4,1.1,110.5-40.7,112.7-93.8l8.9-0.2c3.8-7.1,3.3-35.9,2.3-58.1c0.2,0.1,0.4,0.2,0.7,0.4
			l-0.1-15.2C376.9,113.6,325.1,70.5,261.6,71.1z"/>
	</g>
	<g>
		<path class="st43" d="M187,257.9c-0.4,17.9-15.2,32-33.1,31.6c-17.9-0.4-32-15.2-31.6-33.1c0.4-17.9,15.2-32,33.1-31.6
			C173.2,225.2,187.4,240,187,257.9z"/>
		<path class="st99" d="M127.6,260.1c-2.5,8.1,4,17.3,14.6,20.6c10.6,3.3,21.2-0.6,23.7-8.7c2.5-8.1-4-17.3-14.6-20.6
			C140.7,248.1,130.1,252,127.6,260.1z"/>
		<path class="st98" d="M389,260.4c-0.4,17.9-15.2,32-33.1,31.6c-17.9-0.4-32-15.2-31.6-33.1c0.4-17.9,15.2-32,33.1-31.6
			C375.2,227.7,389.4,242.5,389,260.4z"/>
		<path class="st100" d="M344,275c3,7.9,13.7,11.2,24.1,7.4c10.4-3.9,16.4-13.4,13.4-21.3c-3-7.9-13.7-11.2-24.1-7.4
			C347.1,257.5,341.1,267,344,275z"/>
		<path class="st105" d="M133.8,252.2c0,0,15-7.5,24.2,7.9"/>
		<path class="st105" d="M374.1,255.6c0,0-20.9-7.1-30.8,8"/>
	</g>
	<path class="st98" d="M267.9,126.2l-24.9-0.6c-47.6-1.1-87.1,36.7-88.2,84.3l-0.9,41.8c-1.2,54.5,42,99.7,96.5,100.9h0
		c54.5,1.2,99.7-42,100.9-96.5l0.9-41.8C353.3,166.8,315.5,127.3,267.9,126.2z"/>
	<linearGradient id="SVGID_4_" gradientUnits="userSpaceOnUse" x1="247.4919" y1="94.3021" x2="254.0439" y2="258.1028">
		<stop  offset="4.194030e-03" style="stop-color:#EB918F"/>
		<stop  offset="0.9925" style="stop-color:#EB918F;stop-opacity:0"/>
	</linearGradient>
	<path style="fill:url(#SVGID_4_);" d="M267.9,126.2l-24.9-0.6c-47.6-1.1-87.1,36.7-88.2,84.3l-0.9,41.8
		c-1.2,54.5,42,99.7,96.5,100.9h0c54.5,1.2,99.7-42,100.9-96.5l0.9-41.8C353.3,166.8,315.5,127.3,267.9,126.2z"/>
	<path class="st43" d="M267.9,126.2l-24.9-0.6c-47.6-1.1-87.1,36.7-88.2,84.3l-0.9,41.8c-1.2,54.5,42,99.7,96.5,100.9h0
		c54.5,1.2,99.7-42,100.9-96.5l0.9-41.8C353.3,166.8,315.5,127.3,267.9,126.2z"/>
	<path class="st97" d="M337.1,304.9c8.6-14.3,13.7-30.9,14.1-48.7l0.9-41.8c1.1-47.6-36.7-87.1-84.3-88.2l-24.9-0.6
		c-47.6-1.1-87.1,36.7-88.2,84.3l-0.3,14.8c-9.2,0-17.4,3.9-23.3,10.1c17.6,0.3,84.2-5.1,102.7-105.2l66.9,8.7
		C300.8,138.4,335.7,242.1,337.1,304.9z"/>
	<path class="st20" d="M396.5,234c0,0,42.6-120.5-44.2-175.2c-61.5-38.8-183-11-170.5,29.4c0,0-44.3,3.1-62.9,50.2
		c-21.4,54.2,3.4,118.1,3.4,118.1s1.9-29.8,33.1-31.6c0,0,71.8-28.3,72.7-99.6c0,0,26-34.6,58.7-21.2
		c32.7,13.5,82.2,242.3,26.7,298.5c0,0,88.8-21.3,106.1-58.9C436.9,306.2,396.5,234,396.5,234z M161.7,214c0,0,50.2-42.8,56.2-70.2
		C217.8,143.7,207.8,197.9,161.7,214z"/>
	<g>
		<path class="st56" d="M234.3,287.1c6.9,1.5,13.9,2.6,20.9,2.4c7-0.2,14.1-1.8,20-5.6"/>
	</g>
	<g>
		<g>
			<g>
				<g>
					<path class="st103" d="M197,253.2c-1.4,2.5-2.6,5-3.7,7.6c-0.6,1.4,1.7,2,2.3,0.6c1-2.4,2.2-4.8,3.4-7.1
						C199.7,253,197.7,251.8,197,253.2L197,253.2z"/>
				</g>
			</g>
			<g>
				<g>
					<path class="st103" d="M204.5,253.5c-1.2,3.1-2.5,6.2-3.7,9.2c-0.6,1.4,1.7,2,2.3,0.6c1.2-3.1,2.5-6.2,3.7-9.2
						C207.4,252.7,205.1,252.1,204.5,253.5L204.5,253.5z"/>
				</g>
			</g>
			<g>
				<g>
					<path class="st103" d="M213.7,253.4c-0.7,2.3-1.6,4.5-2.9,6.6c-0.8,1.3,1.2,2.5,2,1.2c1.4-2.2,2.4-4.6,3.2-7.2
						C216.4,252.6,214.1,252,213.7,253.4L213.7,253.4z"/>
				</g>
			</g>
		</g>
		<g>
			<g>
				<g>
					<path class="st103" d="M294.6,253.2c-1.4,2.5-2.6,5-3.7,7.6c-0.6,1.4,1.7,2,2.3,0.6c1-2.4,2.2-4.8,3.4-7.1
						C297.4,253,295.4,251.8,294.6,253.2L294.6,253.2z"/>
				</g>
			</g>
			<g>
				<g>
					<path class="st103" d="M302.2,253.5c-1.2,3.1-2.5,6.2-3.7,9.2c-0.6,1.4,1.7,2,2.3,0.6c1.2-3.1,2.5-6.2,3.7-9.2
						C305,252.7,302.7,252.1,302.2,253.5L302.2,253.5z"/>
				</g>
			</g>
			<g>
				<g>
					<path class="st103" d="M311.4,253.4c-0.7,2.3-1.6,4.5-2.9,6.6c-0.8,1.3,1.2,2.5,2,1.2c1.4-2.2,2.4-4.6,3.2-7.2
						C314,252.6,311.8,252,311.4,253.4L311.4,253.4z"/>
				</g>
			</g>
		</g>
	</g>
	<g>
		<path class="st97" d="M191.3,183.5c-2.3,0.7-3.6,1-3.6,1C188.8,184.3,190.1,183.9,191.3,183.5z"/>
	</g>
	<polyline class="st105" points="251.7,223.6 251.4,250.3 261.7,250.2 	"/>
	<path class="st27" d="M223.6,223.6c7.7,10.6-4.3,22.1-14.6,14C201.3,226.9,213.4,215.4,223.6,223.6z"/>
	<path class="st27" d="M296.2,225.5c7.7,10.6-4.3,22.1-14.6,14C273.9,228.9,286,217.4,296.2,225.5z"/>
	<path class="st27" d="M206.8,187c-7.5,1.8-14.6,6.3-18.3,15.9c0,0,42.7-10.6,43.1-13C231.9,188.4,218.9,184.1,206.8,187"/>
	<path class="st27" d="M307.3,187.6l-4.6-2c-14.1-4.4-30.5,3.3-30,5c0.7,2.3,44.5,7.2,44.5,7.2C314.5,192.9,311,189.7,307.3,187.6z"
		/>
</g>
</svg>
