<?xml version="1.0" encoding="utf-8"?>
<!-- Generator: Adobe Illustrator 22.1.0, SVG Export Plug-In . SVG Version: 6.00 Build 0)  -->
<svg version="1.1" id="Layer_1" xmlns="http://www.w3.org/2000/svg" xmlns:xlink="http://www.w3.org/1999/xlink" x="0px" y="0px"
	 viewBox="0 0 178 799.4" style="enable-background:new 0 0 178 799.4;" xml:space="preserve">
<style type="text/css">
	.st0{enable-background:new    ;}
	.st1{fill:#853D2E;}
</style>
<g>
	<g class="st0">
		<path class="st1" d="M130.6,641.3h0.1c4.4,0.8,7.1,3.5,8.2,8c0.5,2.3,0.8,4.6,0.8,7.1c0,4.5-1,8.1-3.1,10.9
			c-2.6,2-4.4,3.2-5.2,3.5c-2.4,1.2-5.4,1.8-9.1,1.8c-0.2,3.6,0,7.8,0.5,12.4c0.8-0.2,2-0.4,3.7-0.5c3.7,0,7.6,1,11.6,3.1
			c3.7,2.6,5.6,6.5,5.6,11.6c0,2.5-0.5,5.5-1.4,9.1l-0.3,0.3c-3.8,7.7-13.3,11.6-28.5,11.6c-1,0-3.4-0.1-7.1-0.3
			c-14.3-0.7-25.4-2-33.5-4c-11.5-2.7-21.7-7.5-30.8-14.4c-7-5.4-10.5-13.1-10.5-23.3c0-10.9,3.4-19.1,10.2-24.7c4-3.3,8.7-5.6,14-7
			c19.2-5,36-7.5,50.6-7.5C115,639.1,123,639.8,130.6,641.3z M94.8,675.8c-7.4-0.6-18.9-0.2-34.5,1.4c-0.6,0.6-0.4,1.6,0.7,2.9
			c7.7,1.2,14,2,18.8,2.6c8.5,0.9,13.3,1.2,14.4,1c1-0.5,1.5-1.2,1.5-2.3c0-0.4-0.2-1.3-0.5-2.8C95,676.9,94.8,676.1,94.8,675.8z"/>
		<path class="st1" d="M109.7,557.2c9.9,0.8,17.4,4.6,22.6,11.3c2.7,3.5,5.8,10,9.1,19.2c0.7,4.1,1.1,8.3,1.1,12.7
			c0,12.8-2.7,22-8,27.7c-1.7,1.4-15.5,2-41.3,2c-30.6,0-47.4-0.7-50.4-2.2c-5.5-6.4-8.2-15.9-8.2-28.8c0-3.7,0.2-6.5,0.5-8.5
			c1.9-10,5.6-17.4,11-22.4c5.4-4.9,12.3-7.5,20.7-7.8c4.9,0.7,8.9,2.7,12,6c1.4,1.5,3.3,4.5,5.9,9.3c1.1-5.9,4.1-10.6,9-14.1
			C98.5,558.3,103.9,556.7,109.7,557.2z M62.7,591.8l0.1,0.1c-2.4,0.5-3.5,2.5-3.5,6c0,1.2,0.1,1.9,0.3,2c0.1,0.6,0.7,1.2,1.8,1.8
			c5.4-0.6,11.4-0.7,18-0.1l-3.8-6c-4.7-2.7-8.3-4.1-10.8-4.1C64.3,591.5,63.6,591.6,62.7,591.8z M108.9,594.4h0.1
			c-2.1-0.6-3.9-1-5.3-1c-4.2,0-6.3,1.4-6.3,4.2c0,1.5,0.6,3,1.8,4.5c1.2-0.1,3.4,0,6.5,0.4c3.8,0.5,6.1,0.8,7,0.8
			c0.5,0,2-0.1,4.2-0.3c-0.4-2.7-1.4-4.8-3.1-6.3C113,596.2,111.3,595.4,108.9,594.4z"/>
		<path class="st1" d="M118.6,471.6l0.1-0.1c7.4,2.4,13.2,6.5,17.4,12.5c4.3,6,6.4,12.8,6.4,20.7c0,14.4-5.5,25.7-16.4,33.7
			c-9.3,6.8-20.5,10.2-33.8,10.2c-6.1,0-11.7-0.5-16.9-1.6c-23.7-5-37.1-15.6-40.1-31.8c-0.3-1.5-0.4-3-0.4-4.6
			c0-7.3,2.4-14.3,7.2-21.2c4.8-6.9,10.7-11.5,17.6-13.8c15-5.1,26.7-7.6,35-7.6c7.1,0,15,1.3,23.7,4V471.6z M108.8,505.4h-0.1
			c-0.5-2.6-5.5-4-15.1-4c-5.5,0-10.7,0.5-15.3,1.5c-4.7,1-7.1,2.1-7.3,3.3c-0.5,2,1.6,3.8,6.5,5.5s10.3,2.5,16.2,2.5
			C104.6,514.1,109.7,511.2,108.8,505.4z"/>
		<path class="st1" d="M50.5,377.5l-0.1-0.1c4.3-0.4,9-0.5,14.3-0.5c20.8,0,40.1,3.3,57.8,10c4.6,1.7,8.8,4.4,12.6,8.1
			c3.8,3.7,6.2,7.5,7.4,11.5c0.5,3.7,0.8,7.4,0.8,10.9c0,10.1-2.4,18.5-7.1,25.4c-4.5,6.5-10.8,11.1-18.9,13.8c-6.2,2-14.7,3-25.6,3
			c-16.4,0-30-1.6-40.9-4.8c-3.4-1-6.4-3.2-9-6.5c-2.6-3.3-4.1-6.7-4.5-10c-0.3-2.9,0.5-5.8,2.2-8.7c1.8-2.9,4.1-5,6.9-6.3
			c2.2-0.3,4.5-0.4,7-0.4c3,0,9.4,0.8,19.2,2.5c9.8,1.6,16.1,2.5,18.9,2.5c2.7,0,5.1-0.2,7.2-0.5c1.5-0.5,3.1-2,4.6-4.5
			c0.4-3,0-5.1-1.1-6.4c-2.5-2.4-5.9-3.8-10.1-4.4c-6.3,0.1-14.2,0-23.9-0.4c-7.8-0.9-12.6-1.5-14.4-1.8c-5.2-0.7-9.1-1.6-11.9-2.6
			c-5.3-3.3-7.9-7-7.8-11.2c0.1-3.9,1.6-7.5,4.5-10.8C41.7,381.9,45.6,379.4,50.5,377.5z"/>
		<path class="st1" d="M52,293.2V293c1.4-0.3,3.1-0.4,5.3-0.4c4.5,0.1,8,1.2,10.4,3.3c0.9,0.8,2,4.5,3.2,11c1.2,6.5,2,9.8,2.4,10
			c1,0.2,10.5-0.9,28.5-3.1c3.6-0.5,7.3-0.7,10.9-0.7c8.3,0,15.1,1.1,20.4,3.3c6.7,2.7,10,6.7,9.8,12c-0.3,8.5-3,14.5-8,17.9
			c-3.8,2.5-9.9,3.9-18.1,4c0.7,0-4-0.2-14.3-0.5L85,348.9c-5.5-0.4-10.2-1-14.2-1.8c0.2,0.5,0.3,1.4,0.3,2.5c0,3.1-0.5,6.2-1.5,9.3
			c-1.4,4.2-3.4,7-6,8.6c-3.7,2.2-7.2,3.3-10.5,3.3c-5.5,0-9.7-3-12.7-9c-3.9-7.7-5.9-17-5.9-27.9c0-5.7,0.5-11.7,1.6-18
			c1.1-3,2.8-7.5,5-13.6C43.9,297.1,47.5,294.1,52,293.2z"/>
		<path class="st1" d="M124.3,149.8c4.7,0,8.4,1,11,2.9c2.1,1.5,3.5,3.5,4.1,6c0.4,1.3,0.8,3.1,1.4,5.6c0.5,1.9,0.7,3.1,0.7,3.7
			c0,3.9-1.7,7.2-5.2,10c-3.5,2.7-7.8,4.1-13,4.1c-2,0-6.6-0.5-13.9-1.5c-5.6-0.8-10.1-0.9-13.4-0.1c1.4,0.5,5.5,1.9,12.4,4.2
			c8.7,3.1,14,5.9,15.9,8.3c1.1,1.4,1.6,3,1.6,4.9c0,1.5-0.5,3-1.5,4.5c-5.1,4.9-14.9,8.7-29.6,11.5c2.3,0.5,4.6,0.7,7,0.7
			c1.4,0,5.7-0.4,12.9-1.1c5.2-0.5,9.3-0.5,12.4,0c4,0.7,7.5,2.7,10.6,5.9c1.8,3.2,2.7,6.2,2.7,9.1c0,4-1.8,7.7-5.3,11
			c-6.4,3.7-10.6,5.9-12.7,6.5c-4.1,1.4-10.2,2-18.4,2c-7.5,0-20.9-0.6-40.1-1.9c-6.6-0.5-12.3-2.5-17-6.1
			c-4.7-3.6-7.9-8.4-9.6-14.5c-0.4-12.1,10-21.3,31.2-27.5c-3.9-0.5-9.1-1.9-15.5-4.2c-9.5-3.5-15.2-7.4-17.3-11.7
			c-1.3-4.3-1.9-7.9-1.9-10.9c0-5,1.5-8.8,4.6-11.5c3.2-3.5,7.3-5.9,12.3-7.2c3.4-0.9,8.7-1.5,16.1-1.8c6.7-0.1,13.5-0.2,20.2-0.3
			c14.9-0.4,27.3-0.5,37.1-0.5H124.3z"/>
		<path class="st1" d="M76.3,79.8c1.4-0.4,2.8-0.5,4.2-0.4c4.8,0,8.9,2,12.1,5.9c3.1,3.5,4.4,7.4,4,11.5c-0.3,0.7-0.3,2.1-0.1,4.1
			c1.1-0.2,4,0.1,8.7,1c2.2,0,3.8-1,4.9-2.9c-1-3.7-1-6.8,0-9.1c1.5-3.7,3.9-5.8,7.4-6.1c3.9-0.5,7.9,0.7,11.9,3.4
			c4,2.7,7.4,6.5,10.2,11.3c2.5,4.3,3.7,9.3,3.7,15.1c0,5.1-1,9.7-2.9,13.8c-0.8,1.7-3.4,4.3-7.6,7.8c-6.2,3.7-19.2,5.6-39.1,5.7
			c-11.5,0.1-24.5-0.9-39.3-2.9c-8.5-1.2-14.1-3.6-16.6-7.4l-2.3-22.8c-0.8-3.9-1.2-7.6-1.2-11.2c0-7.1,1.8-11.3,5.3-12.5
			c1.5-0.5,3.1-0.8,4.9-0.8c3.9,0,7.1,1.5,9.5,4.4c2.5,2.9,3.7,7,3.7,12.1c0,1.3,0,2.3,0,3c1.4,0.6,3.5,1,6.5,1.1
			c3.8,0.2,5.9,0.3,6.5,0.4c1.3-0.3,2.1-1.2,2.4-2.9c-2.1-2.6-3.1-6-3.1-10C69.9,86.8,72,82.9,76.3,79.8z"/>
	</g>
</g>
</svg>
